<svg xmlns="http://www.w3.org/2000/svg" xmlns:xlink="http://www.w3.org/1999/xlink" width="415" height="517" viewBox="0 0 415 517">
  <defs>
    <style>
      .cls-1, .cls-3 {
        fill: none;
        stroke: #ff00f5;
      }

      .cls-2 {
        clip-path: url(#clip-path);
      }

      .cls-3 {
        stroke-miterlimit: 10;
      }

      .cls-4 {
        opacity: 0.93;
        fill: url(#linear-gradient);
      }
    </style>
    <clipPath id="clip-path">
      <rect id="Rectangle_2" data-name="Rectangle 2" class="cls-1" width="413" height="364"/>
    </clipPath>
    <linearGradient id="linear-gradient" x1="1" y1="0.5" x2="0" y2="0.5" gradientUnits="objectBoundingBox">
      <stop offset="0" stop-color="#296ee0"/>
      <stop offset="1" stop-color="#1caaf2"/>
    </linearGradient>
  </defs>
  <g id="Group_191" data-name="Group 191" transform="translate(2316 1849)">
    <g id="Group_69" data-name="Group 69" transform="translate(-1929.845 -1631.147)">
      <g id="Group_2" data-name="Group 2" class="cls-2" transform="translate(-385.155 -125.853)">
        <g id="Group_1" data-name="Group 1" transform="translate(-27.83 24.793)">
          <path id="Path_1" data-name="Path 1" class="cls-3" d="M227.493,1986.081c-5.559-13.406-11.275-27.085-18.757-35.861s-17.209-11.814-24.727-3.167c-8.388,9.647-11.805,30.433-18.6,44.3-12.783,26.087-34.677,21.934-50.752,4.861s-29-44.338-44.745-62.62c-31.038-36.034-72.4-31.771-101.464,10.457-4.527,6.576-8.824,14.041-13.921,18.6s-11.333,5.771-16.056-.217c-7.835-9.934-7.872-33.411-13.828-47.722-7.5-18.031-22.006-15.614-32.089-3.808s-17.715,30.636-27.393,43.761-23.437,19.481-32.546,4.785c-4.6-7.416-7.251-19.06-12.08-25.844-4.964-6.973-11.941-7.518-17.156-1.34s-8.4,18.756-7.82,30.929" transform="translate(220.276 -1695.832)"/>
          <path id="Path_2" data-name="Path 2" class="cls-3" d="M216.99,1955.238c-5.686-13.629-11.534-27.536-19.175-36.431-7.45-8.7-17.1-11.768-24.612-3.445-4.852,5.371-8.107,14.4-11.291,23.758-2.322,6.825-4.6,13.816-7.443,19.647-3.1,6.355-6.713,11-10.647,14.134-12.166,9.721-27.415,5.03-39.531-6.945-16.029-15.86-29.117-41.865-44.848-59.7-7.985-9.054-16.609-15.665-25.486-19.874-16.615-7.879-34.1-7.255-50.246,2.125-8.725,5.081-17.074,12.712-24.646,22.966-4.53,6.125-8.848,13.157-13.935,17.494a14.988,14.988,0,0,1-7.1,3.6c-3.123.51-6.235-.474-8.885-3.612-7.819-9.265-8.145-31.3-14.121-44.528-3.1-6.891-7.344-10.44-11.956-11.408-6.568-1.362-13.909,2.5-19.807,9.39-8.612,10.054-15.53,24.876-23.435,36.583-1.32,1.955-2.665,3.825-4.049,5.574-9.664,12.228-23.142,17.589-32.18,2.911-4.594-7.47-7.366-18.97-12.234-25.674-4.968-6.86-11.822-7.265-17.093-1.421a29.169,29.169,0,0,0-5.161,9.424,106.687,106.687,0,0,0-3.445,12.235c-.927,4.029-1.7,7.452-1.5,10.467" transform="translate(230.966 -1670.464)"/>
          <path id="Path_3" data-name="Path 3" class="cls-3" d="M206.3,1924.036c-5.814-13.853-11.794-27.988-19.592-37-7.417-8.619-16.983-11.722-24.5-3.724-4.853,5.162-8.173,13.908-11.4,23.091-2.355,6.7-4.645,13.605-7.469,19.423-3.073,6.33-6.629,11.044-10.5,14.3-11.983,10.127-27.017,6.271-39.107-4.783-15.983-14.648-29.237-39.392-44.951-56.79a88.178,88.178,0,0,0-25.331-19.889c-16.434-8.318-33.565-8.85-49.5-.828-8.606,4.354-16.894,11.191-24.463,20.7-4.533,5.672-8.872,12.273-13.949,16.388a15.632,15.632,0,0,1-7.075,3.457,9.377,9.377,0,0,1-8.843-3.268c-7.8-8.6-8.419-29.185-14.414-41.334-3.108-6.338-7.3-9.476-11.842-10.162-6.48-.945-13.72,3.092-19.6,9.932-8.583,9.992-15.578,24.361-23.519,35.353-1.326,1.836-2.673,3.58-4.055,5.2-9.651,11.331-22.847,15.7-31.813,1.036-4.592-7.525-7.481-18.88-12.388-25.5-4.972-6.747-11.722-7.07-17.031-1.5-2.356,2.471-4.3,6.377-5.842,10.771s-2.859,9.357-4.151,13.589c-1.285,4.188-2.607,6.961-2.392,8.962" transform="translate(241.854 -1644.748)"/>
          <path id="Path_4" data-name="Path 4" class="cls-3" d="M195.575,1892.434c-5.942-14.076-12.053-28.44-20.01-37.573-7.385-8.541-16.869-11.676-24.383-4-4.854,4.953-8.24,13.419-11.509,22.424-2.388,6.569-4.691,13.394-7.495,19.2a45.558,45.558,0,0,1-10.349,14.465c-11.8,10.534-26.62,7.511-38.683-2.621-15.937-13.436-29.356-36.92-45.054-53.875a97.947,97.947,0,0,0-25.176-19.9c-16.252-8.758-33.027-10.445-48.747-3.781-8.486,3.629-16.713,9.67-24.28,18.425-4.535,5.221-8.9,11.389-13.963,15.283a16.4,16.4,0,0,1-7.048,3.315,9.566,9.566,0,0,1-8.8-2.923c-7.787-7.927-8.706-27.041-14.707-38.14-3.119-5.769-7.252-8.513-11.728-8.915-6.392-.528-13.53,3.681-19.383,10.475-8.555,9.93-15.627,23.846-23.6,34.123-1.331,1.717-2.681,3.335-4.062,4.827-9.637,10.435-22.551,13.8-31.447-.839-4.589-7.58-7.6-18.79-12.542-25.335-4.976-6.634-11.635-6.917-16.968-1.583-2.668,2.668-4.817,7.146-6.524,12.118s-3.208,10.555-4.856,14.943c-1.642,4.346-3.515,6.47-3.288,7.457" transform="translate(252.783 -1618.642)"/>
          <path id="Path_5" data-name="Path 5" class="cls-3" d="M184.833,1860.383c-6.07-14.3-12.321-28.857-20.428-38.144-7.361-8.432-16.756-11.63-24.268-4.281-4.854,4.743-8.306,12.93-11.618,21.756-2.421,6.442-4.737,13.183-7.52,18.975a48.67,48.67,0,0,1-10.2,14.63c-11.617,10.94-26.222,8.751-38.26-.459-15.891-12.224-29.475-34.447-45.157-50.96a110.343,110.343,0,0,0-25.021-19.919c-16.071-9.2-32.49-12.04-48-6.734-8.367,2.9-16.533,8.149-24.1,16.154-4.538,4.769-8.919,10.505-13.977,14.179a17.325,17.325,0,0,1-7.021,3.174,9.827,9.827,0,0,1-8.758-2.579c-7.771-7.258-8.983-24.915-15-34.945-3.126-5.21-7.206-7.57-11.614-7.669-6.3-.141-13.341,4.269-19.171,11.017-8.526,9.868-15.676,23.331-23.689,32.892-1.337,1.6-2.689,3.09-4.068,4.454-9.624,9.538-22.256,11.91-31.081-2.713-4.587-7.635-7.718-18.678-12.7-25.165s-11.556-6.793-16.905-1.664c-2.982,2.859-5.337,7.914-7.205,13.465s-3.556,11.752-5.561,16.3a16.994,16.994,0,0,1-4.184,5.952" transform="translate(263.727 -1592.097)"/>
          <path id="Path_6" data-name="Path 6" class="cls-3" d="M174.085,1827.85c-6.2-14.523-12.582-29.3-20.845-38.714-7.33-8.349-16.643-11.584-24.153-4.56-4.855,4.534-8.373,12.44-11.728,21.089-2.454,6.315-4.783,12.972-7.546,18.75a52.162,52.162,0,0,1-10.05,14.8c-11.434,11.346-25.825,9.991-37.836,1.7-15.845-11.012-29.594-31.974-45.26-48.045A126.609,126.609,0,0,0-8.2,1772.935c-15.889-9.636-31.953-13.635-47.249-9.687a54.548,54.548,0,0,0-23.914,13.883c-4.541,4.317-8.943,9.622-13.99,13.073a18.444,18.444,0,0,1-6.994,3.033,10.174,10.174,0,0,1-8.716-2.235c-7.755-6.589-9.259-22.79-15.293-31.751-3.131-4.65-7.16-6.611-11.5-6.422-6.217.27-13.152,4.858-18.959,11.56-8.5,9.806-15.725,22.816-23.773,31.662a56.43,56.43,0,0,1-4.075,4.08c-9.61,8.642-21.961,10.017-30.715-4.588-4.585-7.69-7.835-18.583-12.85-25-4.991-6.381-11.483-6.692-16.843-1.745-3.3,3.044-5.858,8.683-7.886,14.812s-3.9,12.95-6.267,17.652c-2.357,4.663-5.332,5.487-5.08,4.447" transform="translate(274.679 -1565.085)"/>
          <path id="Path_7" data-name="Path 7" class="cls-3" d="M163.333,1794.839c-6.325-14.747-12.843-29.748-21.263-39.285-7.3-8.267-16.53-11.538-24.038-4.838-4.855,4.325-8.439,11.951-11.837,20.422-2.486,6.187-4.829,12.762-7.572,18.526a56.453,56.453,0,0,1-9.9,14.961c-11.263,11.7-25.427,11.232-37.412,3.864-15.8-9.8-29.713-29.5-45.364-45.13a148.829,148.829,0,0,0-24.712-19.95c-15.708-10.075-31.416-15.23-46.5-12.641A49.676,49.676,0,0,0-89,1742.382c-4.54,3.884-8.966,8.738-14,11.968a19.831,19.831,0,0,1-6.967,2.891,10.633,10.633,0,0,1-8.674-1.891c-7.739-5.919-9.534-20.664-15.586-28.557-3.137-4.09-7.115-5.651-11.386-5.176-6.13.682-12.962,5.446-18.747,12.1-8.468,9.743-15.774,22.3-23.858,30.432a49.276,49.276,0,0,1-4.081,3.707c-9.6,7.746-21.666,8.124-30.348-6.463-4.582-7.745-7.951-18.489-13-24.825-5-6.264-11.414-6.607-16.78-1.826-3.616,3.222-6.378,9.451-8.568,16.159s-4.252,14.148-6.972,19.006c-2.714,4.822-6.24,5-5.976,2.942" transform="translate(285.635 -1537.599)"/>
          <path id="Path_8" data-name="Path 8" class="cls-3" d="M152.579,1761.143c-6.453-14.97-13.1-30.195-21.681-39.856-7.268-8.186-16.417-11.492-23.923-5.117-4.856,4.116-8.506,11.462-11.946,19.755-2.519,6.06-4.875,12.551-7.6,18.3a61.036,61.036,0,0,1-9.751,15.126c-11.082,12.106-25.03,12.472-36.988,6.026-15.754-8.587-29.833-27.028-45.467-42.214A181.033,181.033,0,0,0-29.331,1713.2c-15.526-10.515-30.879-16.825-45.751-15.594a45.332,45.332,0,0,0-23.548,9.341c-4.543,3.435-8.99,7.854-14.018,10.864a21.571,21.571,0,0,1-6.94,2.75,11.235,11.235,0,0,1-8.631-1.547c-7.723-5.25-9.808-18.539-15.879-25.363a11.609,11.609,0,0,0-11.272-3.929c-6.043,1.095-12.773,6.035-18.535,12.646-8.44,9.681-15.823,21.786-23.942,29.2a42.929,42.929,0,0,1-4.088,3.333c-9.583,6.849-21.371,6.231-29.982-8.337-4.58-7.8-8.067-18.4-13.158-24.656-5-6.148-11.348-6.536-16.717-1.907-3.935,3.393-6.9,10.22-9.249,17.506s-4.6,15.346-7.677,20.361c-3.072,4.98-7.148,4.5-6.871,1.437" transform="translate(296.593 -1509.449)"/>
          <path id="Path_9" data-name="Path 9" class="cls-3" d="M141.823,1726.748c-6.581-15.194-13.363-30.643-22.1-40.427-7.236-8.105-16.3-11.446-23.808-5.4-4.857,3.906-8.572,10.973-12.056,19.088-2.552,5.932-4.92,12.34-7.623,18.078a66.278,66.278,0,0,1-9.6,15.292c-10.9,12.509-24.632,13.712-36.564,8.188C14.364,1734.2.12,1717.017-15.5,1702.273a231.844,231.844,0,0,0-24.4-19.98c-15.345-10.954-30.342-18.482-45-18.547a41.568,41.568,0,0,0-23.365,7.07c-4.546,2.985-9.014,6.97-14.032,9.759a23.8,23.8,0,0,1-6.914,2.608,12.026,12.026,0,0,1-8.589-1.2c-7.706-4.581-10.08-16.413-16.172-22.169a11.384,11.384,0,0,0-11.158-2.683c-5.956,1.508-12.583,6.623-18.323,13.188-8.411,9.619-15.872,21.271-24.027,27.972a37.357,37.357,0,0,1-4.094,2.959c-9.57,5.953-21.075,4.338-29.616-10.212-4.578-7.854-8.182-18.3-13.312-24.486-5.005-6.033-11.284-6.476-16.654-1.988-4.257,3.557-7.419,10.989-9.931,18.853s-4.949,16.544-8.383,21.715c-3.429,5.139-8.056,4.014-7.767-.068" transform="translate(307.553 -1480.612)"/>
          <path id="Path_10" data-name="Path 10" class="cls-3" d="M131.067,1691.558c-6.709-15.417-13.623-31.091-22.516-41-7.2-8.025-16.19-11.4-23.693-5.674-4.857,3.7-8.639,10.483-12.165,18.421-2.585,5.8-4.966,12.129-7.649,17.854a72.317,72.317,0,0,1-9.453,15.457c-10.719,12.913-24.235,14.952-36.14,10.35-15.662-6.163-30.071-22.083-45.673-36.384-7.934-7.267-16.148-13.911-24.247-20-15.163-11.393-29.8-20.081-44.253-21.5a38.91,38.91,0,0,0-23.182,4.8c-4.549,2.535-9.037,6.086-14.046,8.653a26.764,26.764,0,0,1-6.887,2.467,13.074,13.074,0,0,1-8.547-.858c-7.69-3.912-10.352-14.29-16.465-18.975-3.149-2.413-6.979-2.768-11.044-1.436-5.869,1.923-12.394,7.211-18.111,13.731-8.382,9.557-15.92,20.755-24.111,26.742a32.584,32.584,0,0,1-4.1,2.586c-9.556,5.056-20.78,2.445-29.25-12.087-4.575-7.909-8.3-18.211-13.467-24.317-5.009-5.917-11.222-6.424-16.592-2.069-4.579,3.714-7.939,11.757-10.612,20.2s-5.3,17.742-9.088,23.069c-3.787,5.3-8.964,3.522-8.663-1.573" transform="translate(318.513 -1450.991)"/>
          <path id="Path_11" data-name="Path 11" class="cls-3" d="M120.31,1655.457c-6.836-15.641-13.883-31.54-22.934-41.568-7.172-7.946-16.077-11.354-23.578-5.953-4.858,3.488-8.705,9.994-12.274,17.754-2.618,5.677-5.012,11.918-7.675,17.63a79.347,79.347,0,0,1-9.3,15.623c-10.538,13.318-23.838,16.193-35.716,12.512-15.616-4.951-30.19-19.61-45.776-33.469-7.928-7.043-16.09-13.691-24.092-20.01-14.981-11.832-29.265-21.678-43.5-24.453a37.111,37.111,0,0,0-23,2.528c-4.552,2.085-9.061,5.2-14.059,7.548a30.838,30.838,0,0,1-6.86,2.326,14.484,14.484,0,0,1-8.5-.514c-7.674-3.243-10.622-12.168-16.758-15.781-3.152-1.856-6.933-1.806-10.93-.19-5.782,2.338-12.2,7.8-17.9,14.274-8.354,9.495-15.969,20.24-24.2,25.511a28.493,28.493,0,0,1-4.107,2.213c-9.543,4.16-20.485.552-28.883-13.961-4.573-7.964-8.413-18.119-13.621-24.147-5.013-5.8-11.161-6.379-16.529-2.15-4.9,3.863-8.46,12.526-11.293,21.547s-5.645,18.94-9.793,24.424c-4.144,5.456-9.872,3.031-9.559-3.078" transform="translate(329.474 -1420.463)"/>
          <path id="Path_12" data-name="Path 12" class="cls-3" d="M109.551,1612.21c-6.964-15.864-14.142-31.99-23.352-42.139-7.14-7.868-15.964-11.308-23.463-6.231-4.859,3.279-8.772,9.505-12.383,17.087-2.65,5.55-5.058,11.707-7.7,17.405A87.617,87.617,0,0,1,33.5,1614.12c-10.356,13.724-23.44,17.433-35.292,14.674-15.57-3.739-30.31-17.137-45.879-30.554-7.922-6.82-16.033-13.472-23.937-20.025-14.8-12.272-28.726-23.275-42.755-27.406a36.167,36.167,0,0,0-22.816.258c-4.555,1.634-9.085,4.319-14.073,6.443a36.822,36.822,0,0,1-6.833,2.184,16.425,16.425,0,0,1-8.462-.17c-7.658-2.574-10.892-10.049-17.051-12.586-3.154-1.3-6.888-.843-10.816,1.057-5.7,2.754-12.015,8.388-17.687,14.816-8.325,9.433-16.018,19.726-24.28,24.281a25.11,25.11,0,0,1-4.114,1.839c-9.53,3.263-20.19-1.341-28.517-15.836-4.571-8.019-8.529-18.028-13.775-23.977-5.017-5.689-11.1-6.34-16.466-2.231-5.228,4-8.98,13.294-11.975,22.894s-5.993,20.138-10.5,25.778c-4.5,5.615-10.78,2.54-10.455-4.583" transform="translate(340.437 -1381.814)"/>
          <path id="Path_13" data-name="Path 13" class="cls-3" d="M98.792,1567.7c-7.092-16.088-14.4-32.442-23.769-42.71-7.107-7.791-15.85-11.261-23.348-6.51-4.859,3.069-8.838,9.016-12.493,16.42-2.683,5.423-5.1,11.5-7.727,17.181a97.445,97.445,0,0,1-9,15.954c-10.174,14.131-23.043,18.673-34.868,16.836-15.524-2.526-30.429-14.664-45.982-27.639-7.915-6.6-15.975-13.253-23.783-20.04-14.618-12.711-28.187-24.87-42.006-30.36-7.409-2.943-15.089-3.97-22.633-2.013-4.559,1.182-9.109,3.435-14.087,5.339a46.282,46.282,0,0,1-6.806,2.043,19.184,19.184,0,0,1-8.42.175c-7.642-1.9-11.16-7.933-17.344-9.392-3.156-.745-6.843.121-10.7,2.3-5.609,3.172-11.825,8.977-17.475,15.359-8.3,9.37-16.067,19.21-24.365,23.051a22.35,22.35,0,0,1-4.12,1.465c-9.516,2.367-19.895-3.234-28.151-17.711-4.568-8.073-8.643-17.938-13.929-23.807-5.021-5.576-11.042-6.306-16.4-2.312-5.554,4.138-9.5,14.063-12.656,24.24s-6.341,21.335-11.2,27.132c-4.859,5.773-11.688,2.049-11.351-6.088" transform="translate(351.399 -1341.886)"/>
          <path id="Path_14" data-name="Path 14" class="cls-3" d="M88.034,1522.465c-7.22-16.311-14.661-32.894-24.187-43.281-7.075-7.714-15.737-11.215-23.233-6.789-4.86,2.86-8.9,8.527-12.6,15.753-2.716,5.3-5.15,11.285-7.752,16.957a109.328,109.328,0,0,1-8.855,16.119c-9.991,14.539-22.645,19.913-34.444,19-15.478-1.314-30.548-12.191-46.085-24.724-7.909-6.373-15.917-13.034-23.628-20.056-14.437-13.15-27.648-26.463-41.257-33.313-7.289-3.669-14.91-5.491-22.45-4.284-4.562.73-9.132,2.551-14.1,4.234a63.462,63.462,0,0,1-6.779,1.9,23.328,23.328,0,0,1-8.378.519c-7.626-1.235-11.429-5.82-17.637-6.2-3.158-.192-6.8,1.085-10.588,3.55-5.522,3.59-11.636,9.565-17.263,15.9-8.268,9.308-16.116,18.7-24.449,21.821a20.17,20.17,0,0,1-4.127,1.092c-9.5,1.47-19.6-5.127-27.785-19.586-4.566-8.128-8.758-17.848-14.083-23.638-5.025-5.464-10.983-6.276-16.341-2.393-5.882,4.263-10.021,14.832-13.337,25.588s-6.69,22.533-11.909,28.487c-5.216,5.932-12.6,1.557-12.246-7.593" transform="translate(362.362 -1301.315)"/>
          <path id="Path_15" data-name="Path 15" class="cls-3" d="M77.275,1476.437c-7.347-16.535-14.919-33.347-24.6-43.851-7.042-7.638-15.624-11.169-23.118-7.067-4.86,2.651-8.971,8.037-12.711,15.086-2.749,5.168-5.2,11.074-7.778,16.732a123.869,123.869,0,0,1-8.706,16.284c-9.808,14.948-22.248,21.154-34.02,21.159-15.432-.1-30.667-9.718-46.188-21.809-7.9-6.15-15.86-12.814-23.473-20.071-14.255-13.589-27.11-28.055-40.508-36.266-7.169-4.393-14.731-7.013-22.267-6.555-4.566.277-9.156,1.667-14.115,3.129-2.185.638-4.467,1.257-6.753,1.76a30.044,30.044,0,0,1-8.335.863c-7.61-.566-11.7-3.711-17.93-3-3.16.358-6.752,2.05-10.474,4.8-5.435,4.009-11.446,10.154-17.051,16.444-8.239,9.246-16.165,18.181-24.534,20.591a18.519,18.519,0,0,1-4.133.719c-9.489.574-19.3-7.02-27.418-21.46-4.564-8.183-8.873-17.759-14.237-23.468-5.028-5.352-10.924-6.25-16.278-2.474-6.21,4.381-10.541,15.6-14.019,26.934s-7.038,23.731-12.614,29.841c-5.574,6.09-13.5,1.066-13.142-9.1" transform="translate(373.325 -1260.047)"/>
          <path id="Path_16" data-name="Path 16" class="cls-3" d="M66.516,1429.584c-7.475-16.758-15.178-33.8-25.022-44.422-7.009-7.562-15.511-11.123-23-7.346-4.861,2.442-9.038,7.548-12.821,14.419-2.782,5.04-5.242,10.864-7.8,16.508a142.157,142.157,0,0,1-8.556,16.45c-9.625,15.358-21.85,22.394-33.6,23.321-15.386,1.11-30.787-7.245-46.291-18.894a220.439,220.439,0,0,1-23.318-20.086c-14.074-14.028-26.572-29.646-39.759-39.219-7.049-5.117-14.552-8.536-22.084-8.826-4.569-.176-9.18.783-14.129,2.023-2.182.542-4.451,1.107-6.726,1.619a42.508,42.508,0,0,1-8.293,1.207c-7.594.1-11.966-1.606-18.223.19a30.329,30.329,0,0,0-10.36,6.043c-5.347,4.43-11.257,10.742-16.839,16.987-8.21,9.184-16.214,17.665-24.618,19.361a17.355,17.355,0,0,1-4.14.345c-9.476-.323-19.009-8.913-27.052-23.335-4.561-8.238-8.988-17.67-14.391-23.3-5.031-5.24-10.866-6.228-16.216-2.554-6.54,4.49-11.061,16.369-14.7,28.281s-7.386,24.929-13.32,31.2c-5.931,6.249-14.413.575-14.038-10.6" transform="translate(384.288 -1218.051)"/>
          <path id="Path_17" data-name="Path 17" class="cls-3" d="M55.757,1381.725c-7.6-16.982-15.436-34.256-25.44-44.993-6.976-7.487-15.4-11.077-22.889-7.624-4.862,2.233-9.1,7.059-12.93,13.752-2.815,4.913-5.288,10.653-7.83,16.284a165.688,165.688,0,0,1-8.407,16.615c-9.441,15.768-21.453,23.634-33.172,25.483-15.34,2.322-30.906-4.773-46.394-15.979a171,171,0,0,1-23.163-20.1c-13.892-14.468-26.034-31.236-39.01-42.172-6.929-5.84-14.373-10.061-21.9-11.1a41.565,41.565,0,0,0-14.142.919c-2.178.444-4.436.958-6.7,1.477a72.624,72.624,0,0,1-8.251,1.552c-7.578.772-12.237.5-18.516,3.384a41.6,41.6,0,0,0-10.246,7.289c-5.259,4.851-11.067,11.331-16.627,17.53-8.182,9.122-16.262,17.15-24.7,18.131a16.6,16.6,0,0,1-4.146-.029c-9.462-1.219-18.714-10.806-26.686-25.209-4.559-8.293-9.1-17.582-14.545-23.129-5.034-5.129-10.807-6.208-16.153-2.635-6.871,4.591-11.582,17.137-15.381,29.629s-7.734,26.127-14.025,32.549c-6.289,6.407-15.321.084-14.934-12.108" transform="translate(395.252 -1175.168)"/>
          <path id="Path_18" data-name="Path 18" class="cls-3" d="M45,1332.823c-7.731-17.205-15.694-34.712-25.858-45.563-6.943-7.413-15.284-11.031-22.774-7.9-4.862,2.023-9.171,6.57-13.039,13.085a161.891,161.891,0,0,0-7.855,16.06c-2.672,5.946-5.36,11.716-8.258,16.781-9.257,16.18-21.055,24.875-32.748,27.645-15.294,3.535-31.025-2.3-46.5-13.064a139.47,139.47,0,0,1-23.008-20.116c-13.71-14.907-25.508-32.774-38.261-45.125-6.816-6.536-14.194-11.585-21.718-13.368a35.764,35.764,0,0,0-14.156-.187c-2.175.347-4.421.808-6.672,1.336-2.855.668-5.627,1.393-8.208,1.9-7.561,1.441-12.508,2.6-18.809,6.578A59.13,59.13,0,0,0-253,1279.413c-5.172,5.273-10.878,11.919-16.415,18.072-8.153,9.059-16.311,16.635-24.787,16.9a16.248,16.248,0,0,1-4.153-.4c-9.449-2.115-18.419-12.7-26.319-27.084-4.557-8.348-9.216-17.5-14.7-22.959-5.037-5.019-10.749-6.19-16.09-2.716-7.2,4.684-12.1,17.906-16.063,30.975s-8.082,27.325-14.73,33.9-16.229-.407-15.83-13.613" transform="translate(406.216 -1131.367)"/>
          <path id="Path_19" data-name="Path 19" class="cls-3" d="M34.238,1281.853c-7.859-17.429-15.952-35.169-26.275-46.134-6.909-7.339-15.171-10.985-22.659-8.182-4.863,1.814-9.237,6.08-13.148,12.418a137.133,137.133,0,0,0-7.881,15.836c-2.645,5.921-5.275,11.764-8.108,16.946-9.073,16.592-20.658,26.115-32.324,29.807-15.248,4.747-31.144.173-46.6-10.149a117.635,117.635,0,0,1-22.853-20.131c-13.529-15.346-24.971-34.369-37.512-48.079-6.7-7.262-14.014-13.111-21.535-15.639a31.969,31.969,0,0,0-14.17-1.292,56.673,56.673,0,0,0-6.645,1.194c-2.838.678-5.589,1.51-8.166,2.24a48.586,48.586,0,0,0-19.1,9.773,87.031,87.031,0,0,0-10.017,9.782c-5.083,5.7-10.688,12.508-16.2,18.615-8.124,9-16.36,16.12-24.872,15.671a16.231,16.231,0,0,1-4.159-.776c-9.435-3.012-18.124-14.592-25.953-28.959-4.554-8.4-9.33-17.409-14.854-22.789-5.04-4.91-10.69-6.175-16.028-2.8-7.535,4.768-12.623,18.675-16.744,32.322s-8.431,28.523-15.436,35.258-17.137-.9-16.725-15.118" transform="translate(417.179 -1085.46)"/>
          <path id="Path_20" data-name="Path 20" class="cls-3" d="M23.478,1225.528c-7.986-17.652-16.2-35.664-26.693-46.7-6.87-7.29-15.058-10.939-22.544-8.46-4.864,1.6-9.3,5.591-13.258,11.751a118.144,118.144,0,0,0-7.907,15.611c-2.619,5.9-5.185,11.822-7.959,17.112-8.873,17.037-20.26,27.355-31.9,31.969-15.2,5.959-31.264,2.646-46.7-7.234a101.609,101.609,0,0,1-22.7-20.146c-13.347-15.786-24.434-35.964-36.763-51.032-6.577-7.988-13.831-14.665-21.352-17.91a29.333,29.333,0,0,0-14.184-2.4,39.912,39.912,0,0,0-6.619,1.053,72.854,72.854,0,0,0-8.124,2.584c-7.529,2.779-13.055,6.794-19.4,12.967a133.033,133.033,0,0,0-9.9,11.029c-4.994,6.12-10.5,13.1-15.991,19.158-8.1,8.935-16.409,15.605-24.956,14.44a16.537,16.537,0,0,1-4.166-1.149c-9.422-3.908-17.828-16.485-25.587-30.834-4.552-8.457-9.444-17.323-15.008-22.62-5.043-4.8-10.631-6.162-15.965-2.878-7.868,4.844-13.143,19.443-17.426,33.669s-8.779,29.721-16.141,36.612-18.045-1.39-17.621-16.623" transform="translate(428.143 -1033.628)"/>
          <path id="Path_21" data-name="Path 21" class="cls-3" d="M12.718,1167.9c-8.114-17.876-16.459-36.116-27.111-47.276-6.838-7.212-14.945-10.893-22.429-8.739-4.864,1.4-9.37,5.1-13.367,11.084a103.136,103.136,0,0,0-7.933,15.387c-2.592,5.87-5.1,11.867-7.81,17.277-8.691,17.443-19.863,28.6-31.476,34.131-15.156,7.171-31.383,5.119-46.806-4.319a89.362,89.362,0,0,1-22.544-20.162c-13.166-16.225-23.9-37.559-36.014-53.985-6.458-8.714-13.651-16.186-21.169-20.181a27.926,27.926,0,0,0-14.2-3.5,30.619,30.619,0,0,0-6.592.912,45.791,45.791,0,0,0-8.082,2.928c-7.513,3.449-13.33,8.892-19.689,16.161-3.183,3.639-6.474,7.853-9.789,12.275-4.9,6.543-10.31,13.684-15.778,19.7-8.067,8.873-16.458,15.09-25.041,13.21a17.149,17.149,0,0,1-4.172-1.523c-9.409-4.8-17.533-18.378-25.221-32.708-4.55-8.512-9.554-17.258-15.162-22.45-5.041-4.711-10.572-6.15-15.9-2.959-8.2,4.911-13.663,20.212-18.107,35.016s-9.127,30.918-16.846,37.967-18.953-1.881-18.517-18.128" transform="translate(439.108 -980.562)"/>
          <path id="Path_22" data-name="Path 22" class="cls-3" d="M1.958,1109.17c-8.242-18.1-16.719-36.567-27.528-47.846-6.805-7.134-14.831-10.847-22.314-9.017-4.865,1.186-9.437,4.613-13.476,10.417a91.009,91.009,0,0,0-7.958,15.163c-2.565,5.844-5.015,11.913-7.66,17.443-8.508,17.85-19.465,29.836-31.052,36.293-15.11,8.383-31.5,7.592-46.909-1.4a79.7,79.7,0,0,1-22.389-20.177c-12.984-16.664-23.36-39.154-35.265-56.938-6.339-9.44-13.471-17.706-20.986-22.451a27.228,27.228,0,0,0-14.212-4.607,24.744,24.744,0,0,0-6.565.77,34.175,34.175,0,0,0-8.039,3.273c-7.5,4.118-13.606,10.99-19.982,19.355-3.189,4.184-6.423,8.832-9.675,13.522a193.932,193.932,0,0,1-15.566,20.243c-8.038,8.811-16.507,14.575-25.125,11.98a18.039,18.039,0,0,1-4.179-1.9c-9.4-5.7-17.238-20.271-24.854-34.583-4.547-8.567-9.669-17.169-15.316-22.28-5.045-4.6-10.513-6.141-15.84-3.04-8.538,4.969-14.184,20.98-18.788,36.363s-9.475,32.116-17.552,39.321-19.862-2.372-19.413-19.633" transform="translate(450.072 -926.458)"/>
          <path id="Path_23" data-name="Path 23" class="cls-3" d="M-8.8,1049.491c-8.37-18.323-16.978-37.019-27.946-48.417-6.773-7.056-14.718-10.8-22.2-9.3-4.866.977-9.5,4.123-13.586,9.75a80.989,80.989,0,0,0-7.984,14.939c-2.538,5.819-4.93,11.959-7.511,17.608-8.325,18.256-19.068,31.076-30.628,38.454-15.064,9.6-31.621,10.065-47.012,1.511-7.852-4.363-15.4-11.06-22.234-20.192-12.8-17.1-22.823-40.749-34.516-59.891-6.219-10.166-13.291-19.228-20.8-24.722-4.589-3.367-9.346-5.4-14.225-5.711a20.711,20.711,0,0,0-6.538.629,27.834,27.834,0,0,0-8,3.617c-7.481,4.787-13.889,13.075-20.275,22.549-3.2,4.724-6.378,9.8-9.561,14.768a154.632,154.632,0,0,1-15.354,20.786c-8.01,8.749-16.556,14.06-25.21,10.75a19.2,19.2,0,0,1-4.185-2.27c-9.382-6.6-16.943-22.164-24.488-36.458-4.545-8.621-9.784-17.078-15.47-22.11-5.049-4.484-10.453-6.132-15.777-3.121-8.873,5.019-14.7,21.749-19.47,37.71s-9.823,33.314-18.257,40.675-20.77-2.864-20.309-21.138" transform="translate(461.036 -871.487)"/>
          <path id="Path_24" data-name="Path 24" class="cls-3" d="M-19.562,989.013c-8.5-18.546-17.237-37.47-28.364-48.988s-25.313-14.315-35.779-.492c-6.229,8.226-10.449,21.2-15.371,32.488-24.154,55.365-69.315,66.649-99.4,24.836-12.621-17.542-22.286-42.344-33.767-62.845s-26.187-37.33-41.37-33.322c-14.823,3.912-26.488,26.35-37.969,45.719s-25.866,37.6-40.437,30.848c-11.464-5.31-19.761-24.641-28.314-40.975S-400.32,904.9-411.67,911.14c-9.21,5.06-15.224,22.517-20.151,39.057s-10.172,34.512-18.962,42.029-21.678-3.354-21.2-22.643" transform="translate(472 -815.79)"/>
          <path id="Path_25" data-name="Path 25" class="cls-3" d="M-453.667,1003.846c-.418,18.106,11.993,28.186,20.517,20.734s13.53-25.064,18.572-40.776a138.535,138.535,0,0,1,7.854-19.59c3.721-7.417,7.864-12.767,13.246-15.272,11.331-5.274,22.7,8.183,31.352,23.454,3.606,6.363,7.171,13.275,10.933,19.654,5.267,8.931,10.858,16.8,17.469,20.162,8.892,4.508,17.7-.014,25.919-8.679,5.1-5.351,9.941-12.328,14.37-19.57,5.906-9.673,11.845-20.284,18.182-28.9,6.057-8.235,12.524-14.662,19.725-16.724,6.311-1.813,12.553-.041,18.528,4.228,8.33,5.951,16.048,16.715,22.717,28.677,7.375,13.227,14.025,28.169,21.281,41.367a150,150,0,0,0,12.671,19.819c6.187,7.964,12.965,13.626,20.035,17.245,12.151,6.2,25.327,6.295,37.876,1.677a62.275,62.275,0,0,0,24.9-17.445,101.642,101.642,0,0,0,15.935-24.687c1.442-3.06,2.831-6.283,4.231-9.531,3.456-8.01,6.9-16.155,11.292-22.085,8.987-12.113,20.585-12.563,30.795-5.394A37.1,37.1,0,0,1-30.716,976c4.879,4.743,9.336,11.021,13.475,18.2,5.32,9.223,10.1,19.921,14.645,30.486" transform="translate(454.757 -848.774)"/>
          <path id="Path_26" data-name="Path 26" class="cls-3" d="M-435.347,1037.892c-.362,16.924,11.571,26.21,19.829,18.825s13.05-24.624,18.181-39.522a94.157,94.157,0,0,1,8.514-18.231c3.892-6.432,7.981-10.3,13.536-12.435,11.3-4.348,22.611,7.557,31.365,21.765,3.648,5.92,7.259,12.417,11.06,18.56,5.323,8.6,10.894,16.474,17.43,20.1,8.782,4.845,17.466,1.165,25.686-6.887,5.116-4.964,9.986-11.681,14.454-18.763,5.943-9.447,11.908-19.968,18.221-28.579,6.03-8.223,12.47-14.736,19.625-16.947,6.28-1.951,12.5-.369,18.481,3.822,8.33,5.843,15.987,16.68,22.639,28.665,7.355,13.252,14.016,28.147,21.364,40.861a127.571,127.571,0,0,0,12.773,18.667,54.87,54.87,0,0,0,19.918,15.356c12.03,5.21,25.157,4.6,37.661.552a60.589,60.589,0,0,0,24.623-15.056,87.186,87.186,0,0,0,15.9-22.436c1.463-2.864,2.88-5.914,4.311-9.027,3.538-7.678,7.006-15.71,11.363-21.719,8.89-12.227,20.2-13.652,30.36-7.195a33.1,33.1,0,0,1,4.544,3.486c4.887,4.445,9.389,10.54,13.531,17.663,5.328,9.162,10.037,20.011,14.346,30.713" transform="translate(437.516 -881.56)"/>
          <path id="Path_27" data-name="Path 27" class="cls-3" d="M-417.03,1071.616c-.306,15.741,11.15,24.235,19.142,16.915s12.6-24.166,17.791-38.268a65.705,65.705,0,0,1,9.174-16.873,24.564,24.564,0,0,1,13.826-9.6c11.257-3.458,22.524,6.932,31.379,20.076,3.69,5.477,7.347,11.558,11.187,17.466,5.38,8.271,10.931,16.147,17.391,20.031,8.671,5.183,17.222,2.3,25.453-5.1,5.125-4.6,10.03-11.033,14.539-17.955,5.981-9.222,11.97-19.653,18.259-28.26,6-8.211,12.416-14.81,19.524-17.17,6.249-2.09,12.457-.7,18.434,3.417,8.33,5.735,15.926,16.644,22.562,28.654,7.336,13.276,14.006,28.125,21.447,40.355a109.226,109.226,0,0,0,12.876,17.515,50,50,0,0,0,19.8,13.467c11.91,4.22,24.987,2.9,37.447-.573,8.8-2.454,16.947-6.195,24.341-12.666a74.306,74.306,0,0,0,15.866-20.185c1.482-2.674,2.93-5.544,4.391-8.523,3.62-7.346,7.114-15.265,11.434-21.351,8.792-12.34,19.81-14.741,29.925-8.995a29.513,29.513,0,0,1,4.542,3.185c4.9,4.147,9.442,10.059,13.587,17.131,5.336,9.1,9.972,20.1,14.046,30.939" transform="translate(420.276 -914.052)"/>
          <path id="Path_28" data-name="Path 28" class="cls-3" d="M-398.714,1104.839c-.25,14.559,10.729,22.26,18.454,15.006s12.166-23.689,17.4-37.015a46.623,46.623,0,0,1,9.833-15.515c4.242-4.436,8.2-5.386,14.115-6.761,11.206-2.6,22.436,6.306,31.392,18.386,3.732,5.034,7.436,10.7,11.313,16.372,5.436,7.942,10.968,15.819,17.352,19.966,8.561,5.521,16.987,3.464,25.22-3.3,5.14-4.226,10.075-10.386,14.624-17.148,6.019-9,12.032-19.338,18.3-27.94,5.974-8.2,12.362-14.884,19.424-17.393,6.218-2.229,12.409-1.026,18.387,3.011,8.33,5.627,15.865,16.608,22.484,28.642,7.317,13.3,14,28.1,21.53,39.849a92.424,92.424,0,0,0,12.978,16.364,45.517,45.517,0,0,0,19.685,11.578c11.789,3.231,24.816,1.2,37.232-1.7,8.774-2.05,16.769-4.818,24.059-10.277A62.248,62.248,0,0,0-29.1,1119.027c1.5-2.48,2.979-5.175,4.471-8.018,3.7-7.014,7.222-14.819,11.505-20.984,8.694-12.455,19.422-15.83,29.489-10.8a26.326,26.326,0,0,1,4.539,2.885c4.9,3.848,9.5,9.578,13.643,16.6,5.343,9.04,9.907,20.191,13.746,31.165" transform="translate(403.038 -946.094)"/>
          <path id="Path_29" data-name="Path 29" class="cls-3" d="M-380.4,1137.3c-.195,13.376,10.308,20.285,17.767,13.1s11.757-23.19,17.01-35.761a33.949,33.949,0,0,1,10.493-14.157c4.414-3.444,8.3-2.948,14.4-3.923,11.148-1.782,22.349,5.681,31.406,16.7,3.774,4.59,7.524,9.842,11.44,15.278,5.492,7.611,11,15.492,17.313,19.9,8.451,5.858,16.752,4.631,24.987-1.513,5.155-3.846,10.119-9.739,14.709-16.34,6.056-8.77,12.094-19.023,18.336-27.62,5.946-8.188,12.308-14.958,19.323-17.617,6.187-2.368,12.361-1.354,18.34,2.606,8.33,5.519,15.8,16.572,22.407,28.63,7.3,13.324,13.986,28.081,21.613,39.342a78,78,0,0,0,13.08,15.212,41.7,41.7,0,0,0,19.569,9.689c11.669,2.241,24.646-.493,37.018-2.823,8.742-1.646,16.591-3.441,23.777-7.888a51.569,51.569,0,0,0,15.8-15.683c1.523-2.287,3.028-4.806,4.551-7.514,3.784-6.682,7.331-14.374,11.576-20.617,8.6-12.569,19.035-16.918,29.054-12.6a23.527,23.527,0,0,1,4.537,2.585c4.913,3.55,9.548,9.1,13.7,16.066,5.351,8.979,9.842,20.281,13.446,31.392" transform="translate(385.803 -977.458)"/>
          <path id="Path_30" data-name="Path 30" class="cls-3" d="M-362.089,1168.63c-.139,12.194,9.887,18.31,17.079,11.188s11.368-22.671,16.619-34.507c3.232-7.286,7.624-10.909,11.153-12.8,4.584-2.454,8.463.828,14.694-1.086,10.973-3.37,22.262,5.055,31.419,15.008,3.816,4.147,7.612,8.984,11.567,14.184,5.548,7.282,11.041,15.164,17.274,19.836,8.34,6.2,16.518,5.8,24.754.278,5.17-3.466,10.164-9.092,14.794-15.533,6.094-8.544,12.156-18.707,18.374-27.3,5.918-8.176,12.254-15.032,19.223-17.84,6.156-2.507,12.313-1.683,18.293,2.2,8.33,5.411,15.743,16.536,22.329,28.618,7.278,13.349,13.976,28.059,21.7,38.836a65.725,65.725,0,0,0,13.182,14.061,38.3,38.3,0,0,0,19.452,7.8c11.547,1.3,24.476-2.191,36.8-3.949,8.711-1.242,16.413-2.065,23.5-5.5a42.376,42.376,0,0,0,15.762-13.432c1.544-2.093,3.077-4.436,4.631-7.01,3.866-6.35,7.439-13.929,11.648-20.25,8.5-12.683,18.643-17.965,28.619-14.4a21.4,21.4,0,0,1,4.535,2.285c4.921,3.252,9.6,8.617,13.755,15.533,5.359,8.918,9.777,20.371,13.147,31.618" transform="translate(368.569 -1007.817)"/>
          <path id="Path_31" data-name="Path 31" class="cls-3" d="M-343.78,1198.759c-.083,11.012,9.466,16.335,16.391,9.279,6.934-7.074,11-22.129,16.228-33.254,3.438-7.312,8.146-10.309,11.813-11.44,4.754-1.466,8.545,3.386,14.984,1.751,10.934-2.778,22.174,4.43,31.433,13.319a139.074,139.074,0,0,1,11.694,13.089c5.6,6.952,11.078,14.837,17.235,19.771,8.23,6.533,16.285,6.969,24.521,2.07,5.186-3.085,10.214-8.426,14.878-14.725,6.14-8.293,12.218-18.392,18.412-26.982,5.89-8.164,12.2-15.107,19.123-18.063,6.125-2.646,12.266-2.011,18.245,1.795,8.33,5.3,15.682,16.5,22.252,28.606,7.258,13.373,13.966,28.037,21.779,38.329a55.391,55.391,0,0,0,13.284,12.909,35.845,35.845,0,0,0,19.336,5.911c11.427.316,24.306-3.888,36.589-5.074,8.68-.838,16.237-.656,23.214-3.11a34.536,34.536,0,0,0,15.728-11.181,73.042,73.042,0,0,0,4.712-6.506c3.942-6.036,7.547-13.484,11.719-19.883,8.4-12.8,18.256-19.049,28.184-16.2a19.283,19.283,0,0,1,4.532,1.984c4.93,2.953,9.654,8.136,13.811,15,5.367,8.857,9.712,20.461,12.847,31.844" transform="translate(351.339 -1037.112)"/>
          <path id="Path_32" data-name="Path 32" class="cls-3" d="M-325.473,1227.487c-.027,9.83,9.044,14.36,15.7,7.37,6.668-7.01,10.643-21.564,15.838-32,3.651-7.334,8.668-9.711,12.473-10.082,4.923-.479,8.621,5.9,15.274,4.588,10.9-2.157,22.087,3.8,31.447,11.63a101.026,101.026,0,0,1,11.821,12c5.66,6.622,11.114,14.509,17.2,19.705,8.12,6.871,16.052,8.141,24.287,3.862,5.2-2.7,10.259-7.777,14.963-13.918,6.178-8.065,12.28-18.077,18.451-26.662,5.862-8.153,12.146-15.181,19.022-18.286,6.094-2.784,12.218-2.339,18.2,1.389,8.33,5.195,15.621,16.465,22.174,28.594,7.239,13.4,13.957,28.016,21.862,37.823a46.765,46.765,0,0,0,13.387,11.757,34.11,34.11,0,0,0,19.219,4.022c11.308-.669,24.135-5.585,36.374-6.2,8.649-.434,16.058.724,22.932-.721a28.443,28.443,0,0,0,15.693-8.93,57.152,57.152,0,0,0,4.792-6c4.024-5.706,7.656-13.039,11.79-19.516,8.3-12.91,17.869-20.134,27.749-18a17.479,17.479,0,0,1,4.53,1.684c4.938,2.655,9.707,7.656,13.867,14.468,5.374,8.8,9.647,20.551,12.547,32.07" transform="translate(334.111 -1065.166)"/>
          <path id="Path_33" data-name="Path 33" class="cls-3" d="M-307.17,1254.711c.028,8.647,8.623,12.385,15.016,5.461,6.4-6.947,10.3-20.978,15.447-30.746,3.87-7.349,9.19-9.115,13.132-8.724,5.092.506,8.693,8.38,15.563,7.425,10.866-1.51,22,3.179,31.46,9.941a75.824,75.824,0,0,1,11.948,10.9c5.716,6.292,11.151,14.182,17.157,19.64,8.01,7.208,15.819,9.313,24.054,5.653,5.218-2.319,10.3-7.128,15.048-13.11,6.216-7.838,12.342-17.762,18.489-26.343,5.834-8.141,12.092-15.255,18.922-18.509a18,18,0,0,1,18.151.983c8.33,5.087,15.56,16.429,22.1,28.583,7.219,13.421,13.947,27.994,21.945,37.317a39.621,39.621,0,0,0,13.489,10.605c6.216,2.84,12.639,3.09,19.1,2.133,11.189-1.656,23.965-7.281,36.16-7.324,8.617-.03,15.879,2.1,22.65,1.668a23.8,23.8,0,0,0,15.659-6.678,44.908,44.908,0,0,0,4.872-5.5c4.106-5.375,7.764-12.594,11.861-19.149,8.206-13.024,17.482-21.22,27.314-19.8a15.941,15.941,0,0,1,4.527,1.384c4.947,2.357,9.76,7.175,13.923,13.936,5.382,8.735,9.582,20.641,12.247,32.3" transform="translate(316.887 -1091.889)"/>
          <path id="Path_34" data-name="Path 34" class="cls-3" d="M-288.868,1280.448c.084,7.465,8.2,10.41,14.329,3.552,6.138-6.884,9.976-20.37,15.057-29.493,4.1-7.354,9.712-8.52,13.792-7.365,5.262,1.489,8.781,9.042,15.853,10.262,10.8,1.864,21.912,2.553,31.474,8.251a58.455,58.455,0,0,1,12.075,9.807c5.772,5.962,11.187,13.854,17.118,19.575,7.9,7.546,15.587,10.488,23.821,7.445,5.234-1.935,10.348-6.48,15.133-12.3,6.254-7.611,12.4-17.446,18.527-26.023,5.807-8.129,12.038-15.329,18.821-18.732a17.727,17.727,0,0,1,18.1.578c8.33,4.979,15.5,16.393,22.019,28.571,7.2,13.445,13.937,27.972,22.028,36.81a33.771,33.771,0,0,0,13.591,9.454c6.217,2.2,12.6,1.769,18.987.244,11.07-2.643,23.795-8.979,35.945-8.449,8.586.374,15.7,3.482,22.368,4.058,5.1.441,10.381-.2,15.624-4.427a35.55,35.55,0,0,0,4.952-4.992c4.188-5.045,7.872-12.149,11.932-18.782,8.108-13.139,17.095-22.306,26.878-21.6a14.672,14.672,0,0,1,4.525,1.084c4.955,2.059,9.813,6.694,13.979,13.4,5.39,8.674,9.517,20.731,11.948,32.523" transform="translate(299.663 -1117.296)"/>
          <path id="Path_35" data-name="Path 35" class="cls-3" d="M-270.565,1304.792c.14,6.282,7.781,8.435,13.641,1.642,5.873-6.82,9.659-19.741,14.666-28.239,4.329-7.347,10.234-7.925,14.452-6.007,5.432,2.471,8.877,11.4,16.142,13.1,10.735,2.516,21.825,1.927,31.487,6.562a46.137,46.137,0,0,1,12.2,8.713c5.828,5.632,11.224,13.527,17.079,19.51,7.789,7.884,15.355,11.665,23.588,9.236,5.251-1.549,10.393-5.832,15.217-11.495,6.292-7.384,12.466-17.131,18.566-25.7,5.779-8.118,11.984-15.4,18.721-18.956,6-3.2,12.074-3.325,18.057.172,8.33,4.871,15.438,16.357,21.942,28.559,7.181,13.469,13.927,27.95,22.111,36.3,4.562,4.628,9.091,7.14,13.693,8.3,6.218,1.571,12.559.448,18.87-1.645,10.951-3.632,23.625-10.676,35.731-9.575,8.555.778,15.52,4.859,22.086,6.447,5.02,1.214,10.288,1.42,15.589-2.176a28.379,28.379,0,0,0,5.032-4.489c4.27-4.714,7.974-11.721,12-18.415,8-13.286,16.708-23.28,26.443-23.4a13.2,13.2,0,0,1,4.523.784c4.964,1.76,9.866,6.213,14.035,12.871,5.4,8.613,9.452,20.821,11.648,32.749" transform="translate(282.439 -1141.47)"/>
          <path id="Path_36" data-name="Path 36" class="cls-3" d="M-252.263,1319.652c.2,5.1,7.359,6.46,12.954-.267,5.607-6.757,9.351-19.091,14.276-26.985,4.569-7.325,10.757-7.332,15.112-4.649,5.6,3.452,8.973,13.735,16.432,15.936,10.667,3.148,21.737,1.3,31.5,4.873a37.233,37.233,0,0,1,12.328,7.619c5.884,5.3,11.261,13.2,17.04,19.445,7.679,8.221,15.124,12.844,23.355,11.027,5.268-1.162,10.437-5.185,15.3-10.687,6.329-7.159,12.528-16.816,18.6-25.384,5.751-8.106,11.93-15.477,18.621-19.178,5.971-3.34,12.026-3.653,18.01-.233,8.33,4.763,15.377,16.322,21.864,28.547,7.161,13.494,13.917,27.928,22.193,35.8,4.617,4.361,9.182,6.454,13.8,7.15,6.219.938,12.519-.873,18.754-3.533,10.832-4.622,23.454-12.373,35.516-10.7,8.523,1.182,15.34,6.235,21.8,8.836,4.936,1.986,10.2,3.037,15.555.075a22.906,22.906,0,0,0,5.112-3.984c4.353-4.382,8.082-11.276,12.074-18.048,7.9-13.4,16.321-24.482,26.008-25.2a12.8,12.8,0,0,1,4.52.483c4.972,1.462,9.919,5.732,14.091,12.339,5.405,8.552,9.387,20.911,11.348,32.975" transform="translate(265.216 -1154.986)"/>
          <path id="Path_37" data-name="Path 37" class="cls-3" d="M-233.961,1331.476c.251,3.918,6.938,4.485,12.266-2.176,5.342-6.693,9.051-18.421,13.885-25.731,4.817-7.284,11.28-6.739,15.771-3.291,5.773,4.432,9.072,16.059,16.722,18.774,10.6,3.761,21.65.677,31.514,3.184a30.736,30.736,0,0,1,12.455,6.525c5.94,4.972,11.3,12.872,17,19.38,7.568,8.559,14.892,14.025,23.122,12.819,5.285-.774,10.481-4.538,15.387-9.88,6.366-6.933,12.59-16.5,18.642-25.064,5.723-8.094,11.876-15.551,18.52-19.4,5.94-3.478,11.979-3.982,17.962-.639,8.33,4.655,15.316,16.286,21.787,28.535,7.142,13.518,13.908,27.906,22.276,35.291,4.672,4.094,9.273,5.77,13.9,6,6.22.307,12.479-2.2,18.637-5.422,10.712-5.613,23.284-14.07,35.3-11.825,8.492,1.586,15.161,7.611,21.522,11.225,4.853,2.757,10.1,4.655,15.52,2.326a18.741,18.741,0,0,0,5.192-3.48c4.435-4.05,8.19-10.83,12.146-17.68,7.8-13.513,15.935-25.572,25.573-27a12.155,12.155,0,0,1,4.518.183c4.981,1.164,9.972,5.251,14.147,11.806,5.413,8.492,9.322,21,11.048,33.2" transform="translate(247.993 -1165.284)"/>
          <path id="Path_38" data-name="Path 38" class="cls-3" d="M-215.658,1342.129c.307,2.735,6.517,2.51,11.578-4.085,5.077-6.63,8.757-17.732,13.495-24.478,5.071-7.221,11.8-6.146,16.431-1.932,5.944,5.412,9.173,18.369,17.011,21.611,10.539,4.359,21.563.051,31.528,1.495a25.975,25.975,0,0,1,12.582,5.43c6,4.643,11.334,12.544,16.962,19.315,7.458,8.9,14.661,15.207,22.889,14.61,5.3-.385,10.526-3.891,15.472-9.072,6.4-6.708,12.652-16.185,18.681-24.745,5.7-8.082,11.822-15.625,18.42-19.625,5.909-3.617,11.931-4.31,17.915-1.044,8.33,4.547,15.255,16.25,21.709,28.523,7.122,13.542,13.9,27.884,22.359,34.785a19.8,19.8,0,0,0,14,4.847c6.221-.322,12.439-3.519,18.521-7.312,10.593-6.605,23.114-15.767,35.087-12.95,8.461,1.99,14.982,8.985,21.241,13.614,4.77,3.528,10.011,6.275,15.486,4.577a15.6,15.6,0,0,0,5.272-2.975c4.518-3.718,8.306-10.369,12.217-17.313,7.717-13.594,15.548-26.663,25.138-28.8a11.691,11.691,0,0,1,4.515-.117c4.989.866,10.025,4.771,14.2,11.274,5.421,8.431,9.257,21.091,10.748,33.428" transform="translate(230.769 -1174.488)"/>
          <path id="Path_39" data-name="Path 39" class="cls-3" d="M-197.356,1351.792c.363,1.553,6.1.535,10.891-5.994,4.812-6.567,8.468-17.024,13.1-23.224,5.332-7.132,12.327-5.553,17.091-.574,6.115,6.392,9.276,20.665,17.3,24.448,10.481,4.942,21.475-.575,31.541-.194a22.491,22.491,0,0,1,12.709,4.336c6.052,4.313,11.371,12.217,16.922,19.249,7.348,9.234,14.43,16.181,22.656,16.4,5.318.143,10.57-3.245,15.556-8.265,6.441-6.483,12.714-15.87,18.719-24.425,5.667-8.071,11.768-15.7,18.319-19.848,5.878-3.756,11.883-4.638,17.868-1.45,8.33,4.439,15.194,16.214,21.632,28.512,7.1,13.566,13.888,27.862,22.442,34.278a18,18,0,0,0,14.1,3.7c6.222-.95,12.4-4.843,18.4-9.2,10.473-7.6,22.944-17.464,34.873-14.076,8.43,2.394,14.8,10.359,20.959,16,4.687,4.3,9.919,7.9,15.451,6.828a13.257,13.257,0,0,0,5.352-2.471c4.6-3.385,8.414-9.924,12.288-16.946,7.62-13.708,15.161-27.754,24.7-30.6a11.376,11.376,0,0,1,4.513-.417c5,.567,10.078,4.29,14.259,10.741,5.428,8.37,9.192,21.181,10.449,33.654" transform="translate(213.546 -1182.776)"/>
          <path id="Path_40" data-name="Path 40" class="cls-3" d="M-179.053,1358.129c.419.371,5.675-1.44,10.2-7.9,4.546-6.5,8.182-16.3,12.713-21.97,5.6-7.012,12.851-4.961,17.751.784,6.287,7.372,9.383,22.946,17.59,27.285,10.426,5.512,21.388-1.2,31.555-1.884a19.972,19.972,0,0,1,12.836,3.242c6.108,3.983,11.407,11.889,16.883,19.184,7.237,9.572,14.2,17.579,22.423,18.193,5.335.4,10.614-2.6,15.641-7.457,6.478-6.26,12.776-15.555,18.757-24.106,5.639-8.059,11.714-15.773,18.219-20.071,5.847-3.895,11.835-4.967,17.821-1.856,8.33,4.331,15.133,16.178,21.554,28.5,7.083,13.591,13.878,27.84,22.525,33.772a16.656,16.656,0,0,0,14.2,2.544c6.223-1.577,12.358-6.167,18.288-11.089,10.353-8.594,22.773-19.161,34.658-15.2,8.4,2.8,14.624,11.731,20.677,18.393,4.6,5.067,9.826,9.519,15.416,9.08a11.526,11.526,0,0,0,5.433-1.967c4.683-3.052,8.522-9.479,12.359-16.579,7.522-13.822,14.774-28.847,24.268-32.4a11.2,11.2,0,0,1,4.51-.718c5.006.269,10.131,3.809,14.315,10.209,5.436,8.309,9.127,21.271,10.149,33.881" transform="translate(196.322 -1188.108)"/>
          <path id="Path_41" data-name="Path 41" class="cls-3" d="M-160.751,1361.813c.474-.812,5.253-3.415,9.516-9.813,4.281-6.44,7.9-15.553,12.323-20.717,5.876-6.857,13.381-4.385,18.411,2.143,6.466,8.33,9.494,25.215,17.88,30.122,10.376,6.072,21.3-1.826,31.568-3.573a18.19,18.19,0,0,1,12.963,2.148c6.165,3.653,11.444,11.562,16.844,19.119,7.127,9.909,13.965,18.768,22.19,19.985,5.352.792,10.653-1.973,15.726-6.65,6.509-6.061,12.838-15.24,18.8-23.786,5.612-8.047,11.66-15.847,18.118-20.294,5.816-4.034,11.787-5.3,17.774-2.261,8.33,4.223,15.072,16.142,21.477,28.488,7.064,13.615,13.868,27.818,22.608,33.265a15.709,15.709,0,0,0,14.306,1.392c6.225-2.2,12.317-7.492,18.171-12.978,10.233-9.589,22.6-20.858,34.443-16.326,8.367,3.2,14.446,13.1,20.395,20.782,4.522,5.837,9.733,11.143,15.382,11.331a10.2,10.2,0,0,0,5.513-1.463c4.768-2.7,8.63-9.034,12.43-16.212,7.424-13.936,14.386-29.94,23.832-34.2a11.165,11.165,0,0,1,4.508-1.018c5.014-.029,10.184,3.328,14.371,9.676,5.444,8.248,9.062,21.361,9.849,34.107" transform="translate(179.099 -1191.082)"/>
          <path id="Path_42" data-name="Path 42" class="cls-3" d="M-142.448,1365c.53-1.994,4.832-5.39,8.828-11.722,4.016-6.376,7.613-14.791,11.932-19.463,6.159-6.663,13.9-3.789,19.07,3.5,6.638,9.314,9.609,27.471,18.169,32.959,10.331,6.623,21.213-2.451,31.582-5.262,4.321-1.171,8.669-1.314,13.09,1.054,6.221,3.323,11.481,11.234,16.805,19.054,7.017,10.247,13.733,19.959,21.957,21.776,5.368,1.186,10.7-1.326,15.811-5.842,6.547-5.836,12.9-14.924,18.834-23.467,5.584-8.036,11.606-15.921,18.018-20.518,5.785-4.172,11.74-5.624,17.727-2.667,8.33,4.115,15.011,16.107,21.4,28.477,7.044,13.639,13.859,27.8,22.691,32.759,4.946,2.76,9.728,2.365,14.409.24,6.227-2.827,12.271-8.84,18.055-14.867,10.1-10.625,22.433-22.555,34.229-17.451,8.336,3.606,14.276,14.455,20.113,23.171,4.445,6.59,9.64,12.768,15.347,13.582a9.346,9.346,0,0,0,5.593-.958c4.85-2.367,8.739-8.589,12.5-15.845,7.327-14.05,13.994-31.072,23.4-36a11.151,11.151,0,0,1,4.506-1.318c5.023-.328,10.237,2.847,14.427,9.144,5.451,8.187,9,21.451,9.549,34.333" transform="translate(161.875 -1193.615)"/>
          <path id="Path_43" data-name="Path 43" class="cls-3" d="M-124.146,1367.788c.586-3.176,4.411-7.365,8.14-13.631,3.751-6.313,7.328-14.012,11.542-18.21,6.447-6.422,14.428-3.193,19.73,4.859,6.81,10.3,9.728,29.716,18.459,35.8,10.29,7.166,21.126-3.077,31.6-6.951,4.363-1.615,8.757-2.172,13.217-.041,6.277,2.993,11.517,10.907,16.766,18.989,6.906,10.585,13.5,21.151,21.724,23.568,5.384,1.582,10.742-.679,15.9-5.034,6.585-5.61,12.962-14.609,18.872-23.147,5.556-8.024,11.552-16,17.918-20.741,5.754-4.311,11.692-5.952,17.679-3.072,8.33,4.007,14.95,16.071,21.322,28.465,7.025,13.663,13.849,27.774,22.774,32.253,5,2.494,9.82,1.687,14.511-.911,6.23-3.45,12.23-10.162,17.939-16.756,9.981-11.615,22.262-24.252,34.014-18.577,8.3,4.01,14.1,15.832,19.831,25.56,4.363,7.362,9.547,14.394,15.313,15.833a8.79,8.79,0,0,0,5.673-.454c4.932-2.035,8.847-8.144,12.572-15.478,7.229-14.164,13.606-32.161,22.962-37.8a11.363,11.363,0,0,1,4.5-1.618c5.031-.626,10.29,2.367,14.483,8.611,5.459,8.126,8.932,21.541,9.25,34.56" transform="translate(144.652 -1195.782)"/>
          <path id="Path_44" data-name="Path 44" class="cls-3" d="M-105.843,1370.255c.641-4.359,3.99-9.34,7.453-15.54,3.485-6.249,7.039-13.216,11.151-16.956,6.741-6.131,14.952-2.6,20.39,6.217,6.981,11.282,9.851,31.95,18.749,38.634,10.255,7.7,21.039-3.7,31.609-8.64,4.4-2.058,8.845-3.03,13.344-1.135,6.333,2.663,11.554,10.579,16.727,18.924,6.8,10.922,13.266,22.345,21.491,25.359,5.4,1.979,10.787-.032,15.98-4.227,6.622-5.384,13.024-14.294,18.911-22.827,5.528-8.012,11.5-16.069,17.817-20.964,5.723-4.45,11.644-6.281,17.632-3.478,8.33,3.9,14.889,16.035,21.244,28.453,7.006,13.687,13.839,27.752,22.857,31.746,5.055,2.227,9.912,1.009,14.613-2.063,6.233-4.073,12.189-11.484,17.822-18.645,9.861-12.6,22.092-25.949,33.8-19.7,8.274,4.415,13.92,17.208,19.549,27.949,4.281,8.135,9.453,16.021,15.278,18.084a8.482,8.482,0,0,0,5.753.05c5.014-1.7,8.955-7.7,12.644-15.111,7.131-14.278,13.219-33.249,22.527-39.6a11.684,11.684,0,0,1,4.5-1.918c5.04-.924,10.343,1.886,14.539,8.079,5.467,8.065,8.867,21.631,8.95,34.786" transform="translate(127.427 -1197.668)"/>
          <path id="Path_45" data-name="Path 45" class="cls-3" d="M-87.583,1372.464c.7-5.541,3.568-11.315,6.765-17.449,3.22-6.186,6.747-12.4,10.761-15.7,7.04-5.783,15.476-2,21.05,7.575,7.153,12.266,9.978,34.173,19.038,41.471,10.224,8.235,20.951-4.328,31.622-10.33,4.447-2.5,8.933-3.889,13.47-2.229,6.389,2.333,11.591,10.252,16.688,18.859,6.686,11.26,13.031,23.54,21.258,27.151,5.415,2.377,10.831.615,16.065-3.419,6.66-5.159,13.086-13.979,18.949-22.508,5.5-8,11.444-16.143,17.717-21.187,5.692-4.589,11.6-6.609,17.585-3.883,8.33,3.791,14.828,16,21.167,28.441,6.986,13.712,13.829,27.73,22.94,31.24,5.11,1.96,10.008.347,14.715-3.215,6.24-4.675,12.148-12.8,17.706-20.534,9.74-13.594,21.922-27.646,33.585-20.827,8.242,4.819,13.742,18.585,19.267,30.338,4.2,8.907,9.356,17.668,15.243,20.335a8.342,8.342,0,0,0,5.833.555c5.1-1.371,9.064-7.254,12.715-14.744,7.034-14.392,12.831-34.338,22.092-41.4a12.106,12.106,0,0,1,4.5-2.219c5.048-1.222,10.4,1.405,14.6,7.546,5.475,8,8.8,21.721,8.65,35.012" transform="translate(110.244 -1199.33)"/>
          <path id="Path_46" data-name="Path 46" class="cls-3" d="M-69.5,1374.486a60.78,60.78,0,0,1,6.078-19.358c2.955-6.123,6.447-11.577,10.37-14.448,7.341-5.373,16-1.406,21.71,8.934,7.324,13.25,10.11,36.387,19.328,44.308,10.2,8.763,20.864-4.953,31.636-12.019,4.489-2.944,9.021-4.747,13.6-3.323,6.445,2,11.627,9.924,16.649,18.793,6.576,11.6,12.794,24.754,21.025,28.942,5.428,2.787,10.876,1.263,16.15-2.612,6.7-4.933,13.148-13.663,18.988-22.189,5.472-7.989,11.39-16.217,17.616-21.41,5.661-4.728,11.548-6.937,17.538-4.289,8.33,3.683,14.767,15.963,21.089,28.429,6.967,13.736,13.819,27.708,23.023,30.733,5.165,1.693,10.1-.338,14.817-4.366,6.243-5.307,12.107-14.126,17.589-22.423,9.62-14.584,21.752-29.343,33.371-21.952,8.211,5.223,13.564,19.962,18.986,32.728,4.116,9.679,9.262,19.286,15.209,22.586a8.428,8.428,0,0,0,5.913,1.059c5.178-1.039,9.172-6.808,12.786-14.377,6.936-14.506,12.443-35.427,21.657-43.2a12.628,12.628,0,0,1,4.5-2.519c5.057-1.52,10.449.924,14.651,7.014,5.482,7.943,8.737,21.811,8.35,35.239" transform="translate(93.229 -1200.832)"/>
          <path id="Path_47" data-name="Path 47" class="cls-3" d="M-51.59,1376.344c1.625-15.886,7.727-29.567,15.37-34.462s16.523-.809,22.369,10.292c7.5,14.235,10.247,38.593,19.618,47.145,14.418,13.159,29.683-22.163,45.374-18.125,15,3.86,22.874,40.989,37.4,49.462,12.343,7.2,24.856-8.429,35.26-23.673s22.441-31.721,35.007-26.328c17.507,7.515,26.382,53.8,44.118,58.645,12.116,3.311,22.893-14.256,32.392-29.83s21.581-31.04,33.156-23.077c8.18,5.627,13.386,21.338,18.7,35.117s12.547,27.559,21.168,26.4c15.318-2.059,20.118-46.086,34.078-59.012,6.121-5.668,13.711-4.22,19.2,3.662s8.672,21.9,8.05,35.465" transform="translate(76.373 -1202.198)"/>
          <path id="Path_48" data-name="Path 48" class="cls-3" d="M-52.634,1339.907c1.659-13.794,8.23-25.94,16.242-30.6s17.207-1.567,23.334,8.374C-5.251,1330.346-2.1,1352.7,7.475,1360.49c14.484,11.778,29.83-21.967,45.416-17.245,15.051,4.56,22.768,42.153,37.285,51.345,12.191,7.72,24.733-6.905,35.229-21.59s22.53-31.109,34.862-26.787c17.139,6.007,25.763,48.8,43.323,52.846,12.006,2.752,22.836-13.806,32.3-28.145s21.271-28.309,32.566-19.867c8,6.043,13.15,21.758,18.493,35.483s12.628,27.295,21.242,26.072c15.169-2.131,20.079-45.279,33.69-58.565,5.965-5.816,13.358-4.858,18.826,2.565s8.784,21.3,8.08,34.664" transform="translate(77.355 -1173.495)"/>
          <path id="Path_49" data-name="Path 49" class="cls-3" d="M-53.686,1303.349c1.692-11.7,8.733-22.312,17.113-26.746s17.879-2.334,24.3,6.456c8.1,11.1,11.66,31.466,21.45,38.482,14.536,10.416,29.977-21.762,45.459-16.365,15.1,5.266,22.662,43.308,37.168,53.229,12.039,8.233,24.61-5.381,35.2-19.508s22.617-30.5,34.717-27.246c16.768,4.5,25.143,43.808,42.529,47.048,11.9,2.193,22.779-13.356,32.2-26.459s20.976-25.651,31.975-16.656c7.835,6.407,12.914,22.179,18.283,35.848s12.709,27.031,21.315,25.742c15.02-2.2,20.039-44.473,33.3-58.118,5.809-5.964,13.006-5.5,18.451,1.467s8.9,20.689,8.109,33.863" transform="translate(78.345 -1144.654)"/>
          <path id="Path_50" data-name="Path 50" class="cls-3" d="M-54.745,1266.624c1.726-9.608,9.237-18.685,17.985-22.888s18.538-3.1,25.262,4.537c8.385,9.527,12.353,27.914,22.366,34.15,14.575,9.077,30.126-21.549,45.5-15.485,15.16,5.979,22.555,44.456,37.052,55.112,11.886,8.737,24.487-3.857,35.166-17.425s22.7-29.88,34.573-27.705c16.393,3,24.523,38.813,41.734,41.25,11.788,1.635,22.722-12.906,32.1-24.773s20.673-22.951,31.385-13.445c7.663,6.8,12.678,22.6,18.073,36.214s12.79,26.767,21.389,25.413c14.871-2.276,20-43.666,32.912-57.671,5.653-6.111,12.653-6.133,18.076.369s9.008,20.083,8.138,33.062" transform="translate(79.342 -1115.618)"/>
          <path id="Path_51" data-name="Path 51" class="cls-3" d="M-55.808,1229.651c1.759-7.515,9.74-15.058,18.857-19.03s19.183-3.869,26.227,2.619c8.649,7.966,13.038,24.373,23.282,29.818,14.6,7.762,30.274-21.328,45.545-14.6,15.215,6.7,22.448,45.595,36.935,56.995,11.734,9.234,24.364-2.333,35.134-15.342s22.782-29.261,34.428-28.164c16.015,1.508,23.9,33.818,40.939,35.452,11.678,1.076,22.664-12.457,32.009-23.088s20.371-20.248,30.794-10.234c7.492,7.2,12.441,23.019,17.863,36.58s12.871,26.5,21.463,25.084c14.723-2.349,19.96-42.859,32.524-57.224,5.5-6.259,12.3-6.77,17.7-.728s9.12,19.477,8.167,32.261" transform="translate(80.342 -1086.297)"/>
          <path id="Path_52" data-name="Path 52" class="cls-3" d="M-56.877,1192.315c1.793-5.422,10.244-11.43,19.728-15.172s19.816-4.623,27.191.7c8.9,6.424,13.716,20.845,24.2,25.486,14.62,6.474,30.423-21.1,45.588-13.725,15.271,7.425,22.341,46.726,36.818,58.878,11.582,9.723,24.241-.81,35.1-13.26s22.861-28.638,34.284-28.624c15.634.019,23.284,28.823,40.144,29.654,11.569.517,22.607-12.007,31.913-21.4s20.069-17.54,30.2-7.023c7.32,7.6,12.205,23.44,17.652,36.945s12.952,26.238,21.537,24.755c14.574-2.422,19.921-42.053,32.135-56.776,5.342-6.407,11.948-7.408,17.326-1.826s9.232,18.871,8.2,31.46" transform="translate(81.348 -1056.555)"/>
          <path id="Path_53" data-name="Path 53" class="cls-3" d="M-57.95,1154.441c1.826-3.329,10.747-7.8,20.6-11.314s20.439-5.361,28.156-1.217c9.135,4.905,14.388,17.332,25.114,21.154,14.629,5.213,30.571-20.861,45.631-12.844,15.326,8.159,22.235,47.848,36.7,60.761,11.431,10.2,24.118.714,35.071-11.177s22.936-28.009,34.139-29.083c15.249-1.461,22.664,23.827,39.35,23.856,11.459-.042,22.55-11.557,31.817-19.716s19.767-14.828,29.613-3.812c7.149,8,11.969,23.86,17.442,37.311s13.033,25.974,21.611,24.426c14.425-2.494,19.881-41.246,31.746-56.329,5.186-6.555,11.6-8.045,16.951-2.923s9.344,18.265,8.225,30.659" transform="translate(82.358 -1026.189)"/>
          <path id="Path_54" data-name="Path 54" class="cls-3" d="M-59.028,1115.823c1.86-1.236,11.25-4.176,21.472-7.456s21.054-6.077,29.12-3.135c9.362,3.415,15.056,13.836,26.031,16.823,14.632,3.981,30.72-20.617,45.674-11.964,15.382,8.9,22.129,48.962,36.585,62.645,11.281,10.678,23.995,2.238,35.039-9.094s23.01-27.374,33.994-29.542c14.861-2.933,22.044,18.832,38.555,18.057,11.35-.6,22.493-11.107,31.721-18.031s19.465-12.112,29.023-.6c6.977,8.4,11.733,24.28,17.232,37.677s13.113,25.674,21.685,24.1c14.273-2.626,19.842-40.439,31.358-55.882,5.03-6.7,11.243-8.682,16.576-4.021s9.457,17.659,8.255,29.857" transform="translate(83.372 -994.955)"/>
          <path id="Path_55" data-name="Path 55" class="cls-3" d="M-60.108,1075.013c1.893.857,11.754-.548,22.344-3.6s21.664-6.77,30.084-5.054c9.584,1.954,15.719,10.359,26.947,12.491,14.629,2.778,30.868-20.365,45.717-11.084,15.437,9.648,22.025,50.067,36.468,64.528,11.132,11.145,23.872,3.762,35.008-7.011s23.082-26.732,33.85-30c14.471-4.393,21.425,13.837,37.76,12.259,11.241-1.159,22.436-10.657,31.625-16.345s19.162-9.392,28.432,2.61c6.806,8.812,11.5,24.7,17.022,38.043s13.193,25.407,21.759,23.768c14.124-2.7,19.8-39.633,30.969-55.435,4.874-6.85,10.891-9.32,16.2-5.119s9.569,17.053,8.284,29.057" transform="translate(84.388 -961.185)"/>
          <path id="Path_56" data-name="Path 56" class="cls-3" d="M-61.192,1020.84c1.927,2.949,12.257,3.079,23.215.26s22.273-7.438,31.049-6.972c9.8.521,16.38,6.9,27.863,8.159,14.623,1.6,31.015-20.105,45.76-10.2,15.492,10.4,21.921,51.164,36.352,66.411,10.983,11.6,23.749,5.286,34.976-4.929s23.153-26.082,33.705-30.46c14.079-5.842,20.805,8.842,36.965,6.461,11.131-1.718,22.378-10.207,31.529-14.66s18.859-6.667,27.842,5.821c6.633,9.222,11.261,25.121,16.811,38.408s13.274,25.141,21.833,23.439c13.975-2.779,19.763-38.826,30.58-54.987,4.719-7,10.538-9.958,15.826-6.216s9.681,16.447,8.313,28.255" transform="translate(85.409 -911.911)"/>
          <path id="Path_57" data-name="Path 57" class="cls-3" d="M-62.279,966.536c1.96,5.042,12.761,6.706,24.087,4.118s22.883-8.082,32.013-8.89c10.025-.887,17.039,3.463,28.779,3.827,14.615.454,31.161-19.839,45.8-9.324,15.545,11.164,21.819,52.253,36.235,68.294,10.836,12.058,23.626,6.81,34.945-2.846s23.223-25.422,33.561-30.92c13.686-7.278,20.185,3.847,36.171.663,11.022-2.276,22.321-9.757,31.433-12.974S259.3,974.547,268,987.518c6.461,9.636,11.025,25.541,16.6,38.774s13.355,24.875,21.907,23.11c13.826-2.853,19.723-38.02,30.192-54.54,4.563-7.146,10.185-10.6,15.451-7.313s9.793,15.841,8.342,27.454" transform="translate(86.431 -862.489)"/>
          <path id="Path_58" data-name="Path 58" class="cls-3" d="M-63.369,912.1c1.994,7.135,13.264,10.334,24.959,7.976s23.5-8.706,32.978-10.808c10.249-2.272,17.7.045,29.7-.5,14.606-.669,31.307-19.567,45.846-8.444,15.6,11.933,21.72,53.335,36.118,70.178,10.691,12.505,23.5,8.334,34.913-.763s23.293-24.753,33.416-31.379c13.294-8.7,19.566-1.148,35.376-5.135,10.913-2.835,22.264-9.307,31.337-11.288s18.25-1.206,26.661,12.243c6.287,10.053,10.789,25.961,16.391,39.14s13.436,24.609,21.981,22.781c13.677-2.927,19.684-37.213,29.8-54.093,4.407-7.293,9.833-11.232,15.076-8.411s9.9,15.235,8.371,26.653" transform="translate(87.457 -812.91)"/>
          <path id="Path_59" data-name="Path 59" class="cls-3" d="M-64.461,857.519c2.027,9.228,13.767,13.961,25.831,11.834s24.112-9.311,33.942-12.727c10.478-3.64,18.358-3.352,30.611-4.836,14.6-1.768,31.451-19.288,45.889-7.564,15.65,12.708,21.622,54.408,36,72.061,10.547,12.947,23.38,9.858,34.881,1.32s23.364-24.074,33.271-31.838c12.9-10.111,18.946-6.143,34.581-10.933,10.8-3.394,22.207-8.857,31.241-9.6s17.943,1.53,26.07,15.454c6.112,10.472,10.553,26.382,16.181,39.505s13.517,24.345,22.055,22.452c13.528-3,19.644-36.406,29.414-53.646,4.251-7.441,9.48-11.87,14.7-9.509s10.017,14.629,8.4,25.852" transform="translate(88.485 -763.17)"/>
          <path id="Path_60" data-name="Path 60" class="cls-3" d="M-65.555,802.8c2.061,11.321,14.271,17.589,26.7,15.692s24.734-9.9,34.906-14.645c10.712-4.995,19.019-6.729,31.528-9.168,14.594-2.846,31.594-19,45.932-6.684,15.7,13.49,21.526,55.475,35.885,73.944,10.4,13.384,23.257,11.382,34.85,3.4s23.436-23.385,33.127-32.3c12.514-11.509,18.326-11.138,33.786-16.732,10.694-3.952,22.15-8.407,31.145-7.917s17.635,4.27,25.48,18.665c5.937,10.895,10.317,26.8,15.97,39.871s13.6,24.081,22.129,22.123c13.379-3.071,19.6-35.6,29.026-53.2,4.1-7.589,9.128-12.508,14.326-10.606s10.129,14.023,8.43,25.051" transform="translate(89.514 -713.263)"/>
          <path id="Path_61" data-name="Path 61" class="cls-3" d="M-66.651,747.922c2.094,13.414,14.774,21.216,27.574,19.55s25.362-10.481,35.871-16.563a121.835,121.835,0,0,1,32.444-13.5c14.592-3.9,31.736-18.713,45.974-5.8,15.748,14.278,21.434,56.534,35.768,75.827,10.264,13.815,23.134,12.906,34.818,5.485s23.512-22.688,32.982-32.756c12.128-12.894,17.706-16.134,32.992-22.53,10.585-4.511,22.093-7.957,31.049-6.231s17.326,7.013,24.889,21.876c5.76,11.319,10.081,27.222,15.76,40.237s13.679,23.817,22.2,21.794c13.23-3.141,19.565-34.793,28.637-52.751,3.939-7.737,8.775-13.145,13.95-11.7s10.241,13.417,8.459,24.25" transform="translate(90.546 -663.184)"/>
          <path id="Path_62" data-name="Path 62" class="cls-3" d="M-67.749,692.9c2.128,15.507,15.278,24.843,28.446,23.408s25.995-11.051,36.835-18.481c11.2-7.675,20.351-13.426,33.36-17.832,14.594-4.942,31.876-18.418,46.017-4.923,15.795,15.072,21.344,57.586,35.652,77.71,10.126,14.242,23.01,14.43,34.787,7.568s23.59-21.982,32.838-33.215c11.747-14.27,17.087-21.129,32.2-28.328,10.475-5.07,22.035-7.507,30.953-4.546s17.014,9.759,24.3,25.087c5.582,11.746,9.845,27.643,15.55,40.6s13.76,23.555,22.276,21.464c13.081-3.211,19.525-33.986,28.248-52.3,3.784-7.884,8.423-13.782,13.576-12.8s10.353,12.811,8.488,23.449" transform="translate(91.579 -612.93)"/>
          <path id="Path_63" data-name="Path 63" class="cls-3" d="M-68.848,637.72c2.161,17.6,15.781,28.471,29.317,27.267s26.633-11.615,37.8-20.4c11.45-9.008,21.024-16.748,34.276-22.163,14.6-5.966,32.014-18.118,46.06-4.043,15.84,15.872,21.257,58.632,35.535,79.594,9.989,14.666,22.887,15.954,34.755,9.651s23.673-21.269,32.693-33.675c11.37-15.637,16.467-26.124,31.4-34.126,10.366-5.629,21.978-7.057,30.857-2.86s16.7,12.507,23.708,28.3c5.4,12.175,9.609,28.063,15.34,40.969s13.841,23.293,22.35,21.135c12.932-3.279,19.486-33.18,27.86-51.857,3.628-8.032,8.07-14.42,13.2-13.9s10.465,12.205,8.517,22.648" transform="translate(92.613 -562.501)"/>
          <path id="Path_64" data-name="Path 64" class="cls-3" d="M-69.95,582.392c2.195,19.693,16.284,32.1,30.189,31.124S-12.485,601.341-1,591.2C10.71,580.862,20.7,571.144,34.2,564.7c14.613-6.976,32.151-17.814,46.1-3.163,15.883,16.678,21.173,59.672,35.418,81.477,9.855,15.085,22.764,17.478,34.723,11.733s23.759-20.55,32.548-34.134c11-17,15.847-31.119,30.608-39.924,10.257-6.187,21.921-6.607,30.761-1.174s16.386,15.258,23.118,31.509c5.221,12.605,9.373,28.483,15.129,41.334s13.922,23.032,22.424,20.806c12.784-3.346,19.446-32.373,27.471-51.41,3.472-8.18,7.718-15.057,12.825-15s10.577,11.6,8.547,21.847" transform="translate(93.65 -511.897)"/>
          <path id="Path_65" data-name="Path 65" class="cls-3" d="M-71.052,526.883c2.228,21.786,16.788,35.725,31.061,34.982S-12.067,549.134-.263,537.63C11.706,525.965,22.12,514.284,35.845,506.8c14.631-7.975,32.286-17.506,46.146-2.283,15.923,17.489,21.092,60.706,35.3,83.36,9.722,15.5,22.641,19,34.692,13.816s23.851-19.828,32.4-34.593c10.633-18.356,15.228-36.114,29.813-45.722,10.147-6.746,21.864-6.157,30.665.511s16.069,18.009,22.527,34.72c5.038,13.037,9.136,28.9,14.919,41.7s14.005,22.8,22.5,20.477c12.638-3.365,19.407-31.566,27.082-50.962,3.316-8.328,7.365-15.695,12.45-16.094s10.689,10.993,8.576,21.046" transform="translate(94.687 -461.095)"/>
          <path id="Path_66" data-name="Path 66" class="cls-3" d="M-72.157,471.268c2.262,23.878,17.291,39.353,31.933,38.841S-11.648,496.821.468,483.955C12.7,470.962,23.538,457.331,37.493,448.8c14.655-8.964,32.419-17.194,46.189-1.4,15.962,18.3,21.015,61.734,35.185,85.243,9.592,15.914,22.518,20.525,34.66,15.9s23.947-19.1,32.259-35.052c10.273-19.71,14.608-41.109,29.018-51.52,10.038-7.3,21.807-5.707,30.569,2.2s15.75,20.762,21.937,37.931c4.854,13.47,8.9,29.324,14.709,42.066S296.105,566.7,304.591,564.3c12.489-3.437,19.367-30.76,26.694-50.515,3.16-8.475,7.013-16.332,12.075-17.191s10.8,10.387,8.6,20.245" transform="translate(95.727 -410.161)"/>
          <path id="Path_67" data-name="Path 67" class="cls-3" d="M-73.262,415.519c2.3,25.971,17.795,42.98,32.8,42.7S-11.226,444.375,1.2,430.145C13.7,415.824,24.963,400.256,39.14,390.655c14.684-9.945,32.551-16.879,46.232-.523,16,19.125,20.941,62.758,35.068,87.127,9.464,16.325,22.4,22.049,34.629,17.982s24.047-18.377,32.115-35.511c9.918-21.065,13.988-46.1,28.223-57.318,9.929-7.863,21.75-5.258,30.473,3.882s15.429,23.516,21.346,41.142c4.668,13.9,8.664,29.744,14.5,42.431s14.167,22.275,22.646,19.819c12.34-3.51,19.328-29.953,26.305-50.068,3-8.623,6.66-16.97,11.7-18.289s10.913,9.781,8.634,19.444" transform="translate(96.767 -359.073)"/>
          <path id="Path_68" data-name="Path 68" class="cls-3" d="M-74.368,359.646c2.329,28.064,18.3,46.607,33.676,46.557s29.89-14.4,42.621-29.99c12.779-15.651,24.463-33.145,38.857-43.822,14.721-10.92,32.68-16.56,46.275.357,16.032,19.95,20.871,63.777,34.952,89.01,9.338,16.734,22.272,23.573,34.6,20.064s24.152-17.652,31.97-35.97c9.569-22.421,13.368-51.1,27.429-63.117,9.819-8.422,21.692-4.808,30.378,5.568s15.105,26.269,20.756,44.353c4.48,14.337,8.428,30.164,14.288,42.8s14.248,22.011,22.72,19.49c12.191-3.582,19.288-29.146,25.916-49.621,2.849-8.771,6.307-17.607,11.325-19.387s11.025,9.176,8.663,18.643" transform="translate(97.808 -307.842)"/>
          <path id="Path_69" data-name="Path 69" class="cls-3" d="M-75.476,303.721c2.362,30.157,18.8,50.235,34.548,50.415s30.552-14.954,43.586-31.909c13.055-16.982,25.168-36.391,39.773-48.154,14.763-11.89,32.792-16.188,46.318,1.237,16.044,20.84,20.8,64.792,34.835,90.893,9.214,17.141,22.149,25.1,34.566,22.147s24.261-16.928,31.825-36.43c9.224-23.78,12.749-56.094,26.634-68.915,9.71-8.981,21.635-4.358,30.282,7.254s14.762,29.044,20.165,47.564c4.276,14.788,8.192,30.584,14.078,43.163s14.329,21.747,22.794,19.161c12.042-3.655,19.249-28.34,25.528-49.174,2.693-8.919,5.955-18.245,10.95-20.484s11.137,8.57,8.693,17.842" transform="translate(98.851 -256.553)"/>
          <path id="Path_70" data-name="Path 70" class="cls-3" d="M-76.585,247.568c2.4,32.25,19.3,53.862,35.419,54.273S-9.95,286.33,3.385,268.014s25.878-39.629,40.689-52.486,32.933-15.916,46.361,2.118c16.092,21.612,20.742,65.8,34.718,92.776,9.092,17.546,22.026,26.621,34.534,24.23s24.373-16.207,31.681-36.889c8.884-25.143,12.129-61.09,25.839-74.713,9.6-9.54,21.578-3.908,30.186,8.939s14.453,31.775,19.575,50.775c4.1,15.2,7.956,31,13.868,43.529s14.41,21.483,22.868,18.832c11.894-3.728,19.209-27.533,25.139-48.727,2.537-9.066,5.6-18.882,10.575-21.582s11.249,7.964,8.722,17.041" transform="translate(99.894 -205)"/>
        </g>
      </g>
    </g>
    <rect id="Rectangle_173" data-name="Rectangle 173" class="cls-4" width="415" height="517" transform="translate(-2316 -1849)"/>
  </g>
</svg>
