<svg xmlns="http://www.w3.org/2000/svg" xmlns:xlink="http://www.w3.org/1999/xlink" width="204" height="194" viewBox="0 0 204 194">
  <defs>
    <style>
      .cls-1, .cls-3 {
        fill: none;
        stroke: #777;
      }

      .cls-2 {
        clip-path: url(#clip-path);
      }

      .cls-3 {
        stroke-miterlimit: 10;
      }
    </style>
    <clipPath id="clip-path">
      <rect id="Rectangle_2" data-name="Rectangle 2" class="cls-1" width="204" height="194" transform="translate(0.453)"/>
    </clipPath>
  </defs>
  <g id="Group_202" data-name="Group 202" transform="translate(384.702 125.853)">
    <g id="Group_2" data-name="Group 2" class="cls-2" transform="translate(-385.155 -125.853)">
      <g id="Group_1" data-name="Group 1" transform="translate(-13.777 13.235)">
        <path id="Path_1" data-name="Path 1" class="cls-3" d="M9.351,1946.7c-2.752-7.156-5.582-14.459-9.285-19.143s-8.519-6.307-12.241-1.691c-4.152,5.15-5.844,16.246-9.207,23.646-6.328,13.926-17.167,11.709-25.125,2.595s-14.355-23.669-22.151-33.428c-15.365-19.235-35.839-16.96-50.229,5.582-2.241,3.511-4.368,7.5-6.892,9.928s-5.611,3.081-7.948-.116c-3.879-5.3-3.9-17.835-6.846-25.475-3.715-9.625-10.894-8.335-15.886-2.033s-8.77,16.354-13.561,23.36-11.6,10.4-16.112,2.555c-2.275-3.959-3.589-10.175-5.98-13.8-2.457-3.722-5.911-4.013-8.493-.715s-4.156,10.012-3.871,16.511" transform="translate(212.314 -1791.761)"/>
        <path id="Path_2" data-name="Path 2" class="cls-3" d="M-1.584,1916.779c-2.815-7.276-5.71-14.7-9.492-19.448-3.688-4.643-8.463-6.282-12.184-1.839-2.4,2.867-4.013,7.686-5.589,12.682a98.23,98.23,0,0,1-3.685,10.488,21.4,21.4,0,0,1-5.271,7.545c-6.022,5.189-13.571,2.685-19.57-3.708-7.935-8.467-14.414-22.348-22.2-31.871a40.3,40.3,0,0,0-12.617-10.609,24.154,24.154,0,0,0-24.874,1.135,42.638,42.638,0,0,0-12.2,12.26c-2.242,3.269-4.38,7.023-6.9,9.338a7.234,7.234,0,0,1-3.516,1.921,4.42,4.42,0,0,1-4.4-1.928c-3.871-4.946-4.032-16.708-6.991-23.77-1.536-3.679-3.636-5.573-5.919-6.09-3.251-.727-6.886,1.337-9.805,5.012-4.263,5.367-7.688,13.279-11.6,19.529-.653,1.044-1.319,2.042-2,2.976-4.784,6.528-11.456,9.389-15.93,1.554-2.274-3.988-3.647-10.127-6.056-13.705-2.459-3.662-5.852-3.878-8.462-.759a15.958,15.958,0,0,0-2.555,5.031,60.46,60.46,0,0,0-1.706,6.531,21.859,21.859,0,0,0-.741,5.587" transform="translate(223.342 -1764.761)"/>
        <path id="Path_3" data-name="Path 3" class="cls-3" d="M-12.718,1886.48c-2.878-7.395-5.838-14.941-9.7-19.752-3.672-4.6-8.407-6.257-12.127-1.988-2.4,2.755-4.046,7.425-5.643,12.326a107.392,107.392,0,0,1-3.7,10.368,22.793,22.793,0,0,1-5.2,7.633c-5.932,5.406-13.375,3.347-19.36-2.553-7.912-7.82-14.473-21.028-22.253-30.315a44.289,44.289,0,0,0-12.54-10.617c-8.135-4.441-16.616-4.724-24.5-.442a37.962,37.962,0,0,0-12.11,11.048c-2.244,3.028-4.392,6.552-6.905,8.748a7.523,7.523,0,0,1-3.5,1.845,4.461,4.461,0,0,1-4.378-1.744c-3.863-4.589-4.168-15.58-7.136-22.065-1.538-3.383-3.613-5.059-5.862-5.425-3.208-.5-6.792,1.651-9.7,5.3-4.249,5.334-7.712,13-11.643,18.872-.656.98-1.323,1.911-2.008,2.776-4.777,6.049-11.31,8.379-15.749.553-2.273-4.017-3.7-10.079-6.133-13.615-2.461-3.6-5.8-3.774-8.431-.8a16.88,16.88,0,0,0-2.892,5.75c-.767,2.351-1.416,4.995-2.055,7.254-.636,2.236-1.291,3.716-1.184,4.784" transform="translate(234.575 -1737.391)"/>
        <path id="Path_4" data-name="Path 4" class="cls-3" d="M-23.893,1855.76c-2.941-7.514-5.967-15.182-9.906-20.057-3.656-4.559-8.351-6.233-12.07-2.137-2.4,2.644-4.079,7.163-5.7,11.97-1.182,3.507-2.322,7.15-3.71,10.249a24.342,24.342,0,0,1-5.123,7.721c-5.841,5.623-13.178,4.009-19.15-1.4-7.89-7.172-14.532-19.708-22.3-28.759a49.235,49.235,0,0,0-12.463-10.625c-8.046-4.675-16.35-5.576-24.132-2.018a33.722,33.722,0,0,0-12.02,9.835c-2.245,2.787-4.4,6.08-6.912,8.159a7.872,7.872,0,0,1-3.489,1.77,4.53,4.53,0,0,1-4.357-1.561c-3.855-4.231-4.31-14.435-7.281-20.36-1.544-3.079-3.59-4.544-5.806-4.759-3.164-.282-6.7,1.965-9.6,5.592-4.235,5.3-7.736,12.729-11.685,18.215-.659.916-1.327,1.78-2.011,2.577-4.771,5.57-11.164,7.368-15.568-.448-2.272-4.046-3.761-10.031-6.209-13.524-2.463-3.541-5.76-3.692-8.4-.845a17.905,17.905,0,0,0-3.23,6.469c-.847,2.66-1.588,5.634-2.4,7.977-.813,2.32-1.74,3.454-1.628,3.981" transform="translate(245.849 -1709.605)"/>
        <path id="Path_5" data-name="Path 5" class="cls-3" d="M-35.083,1824.568c-3-7.633-6.1-15.4-10.113-20.362-3.644-4.5-8.3-6.208-12.014-2.285-2.4,2.532-4.112,6.9-5.752,11.614-1.2,3.439-2.345,7.038-3.723,10.129a26.074,26.074,0,0,1-5.049,7.81c-5.751,5.84-12.981,4.672-18.94-.245-7.867-6.525-14.591-18.388-22.355-27.2a55.519,55.519,0,0,0-12.387-10.633c-7.956-4.909-16.084-6.427-23.761-3.595a29.934,29.934,0,0,0-11.929,8.623c-2.247,2.546-4.415,5.608-6.919,7.569a8.293,8.293,0,0,1-3.476,1.694,4.631,4.631,0,0,1-4.336-1.377c-3.847-3.874-4.447-13.3-7.426-18.654-1.547-2.781-3.567-4.041-5.75-4.094-3.121-.075-6.6,2.279-9.49,5.881-4.221,5.268-7.76,12.454-11.727,17.558-.662.853-1.331,1.65-2.014,2.378-4.764,5.092-11.018,6.358-15.386-1.448-2.271-4.076-3.821-9.97-6.285-13.433s-5.721-3.626-8.369-.888c-1.476,1.526-2.642,4.225-3.567,7.188s-1.76,6.274-2.753,8.7a9.033,9.033,0,0,1-2.071,3.177" transform="translate(257.14 -1681.352)"/>
        <path id="Path_6" data-name="Path 6" class="cls-3" d="M-46.28,1792.871c-3.068-7.753-6.229-15.642-10.319-20.667-3.629-4.457-8.239-6.184-11.957-2.434-2.4,2.42-4.145,6.641-5.806,11.258-1.215,3.371-2.368,6.925-3.736,10.009a28.022,28.022,0,0,1-4.975,7.9c-5.66,6.057-12.784,5.333-18.73.909-7.844-5.878-14.65-17.068-22.406-25.647a63.753,63.753,0,0,0-12.31-10.641c-7.866-5.144-15.818-7.279-23.39-5.171a26.605,26.605,0,0,0-11.838,7.411c-2.248,2.3-4.427,5.136-6.926,6.979a8.8,8.8,0,0,1-3.462,1.619,4.773,4.773,0,0,1-4.315-1.193c-3.839-3.517-4.584-12.166-7.571-16.949-1.55-2.482-3.545-3.529-5.693-3.428-3.078.144-6.511,2.593-9.385,6.171-4.206,5.234-7.785,12.179-11.769,16.9a29.117,29.117,0,0,1-2.017,2.178c-4.757,4.613-10.872,5.347-15.205-2.449-2.27-4.1-3.878-9.92-6.361-13.343-2.471-3.406-5.685-3.572-8.338-.932-1.633,1.625-2.9,4.635-3.9,7.907a82.879,82.879,0,0,1-3.1,9.423c-1.167,2.489-2.639,2.929-2.515,2.374" transform="translate(268.438 -1652.602)"/>
        <path id="Path_7" data-name="Path 7" class="cls-3" d="M-57.482,1760.666c-3.131-7.872-6.358-15.88-10.526-20.971-3.613-4.413-8.183-6.159-11.9-2.583-2.4,2.309-4.178,6.38-5.86,10.9-1.231,3.3-2.39,6.813-3.748,9.89a30.405,30.405,0,0,1-4.9,7.986c-5.576,6.248-12.588,6-18.52,2.063-7.821-5.231-14.709-15.748-22.457-24.091a75,75,0,0,0-12.233-10.65c-7.776-5.378-15.552-8.13-23.02-6.748a23.912,23.912,0,0,0-11.748,6.2c-2.247,2.073-4.439,4.664-6.933,6.389a9.439,9.439,0,0,1-3.449,1.543,4.967,4.967,0,0,1-4.294-1.009c-3.831-3.16-4.72-11.031-7.716-15.244a5.828,5.828,0,0,0-5.637-2.763c-3.034.364-6.417,2.907-9.281,6.461-4.192,5.2-7.809,11.9-11.811,16.245a25.165,25.165,0,0,1-2.02,1.979c-4.751,4.135-10.726,4.337-15.024-3.45-2.268-4.134-3.936-9.87-6.438-13.252-2.473-3.344-5.65-3.527-8.307-.975-1.79,1.72-3.158,5.045-4.241,8.626s-2.105,7.553-3.451,10.146c-1.344,2.574-3.089,2.667-2.958,1.57" transform="translate(279.74 -1623.346)"/>
        <path id="Path_8" data-name="Path 8" class="cls-3" d="M-68.686,1727.744c-3.194-7.991-6.487-16.119-10.733-21.276-3.6-4.37-8.127-6.135-11.843-2.731-2.4,2.2-4.211,6.119-5.914,10.546-1.247,3.235-2.413,6.7-3.761,9.77a32.954,32.954,0,0,1-4.827,8.075c-5.486,6.463-12.391,6.658-18.31,3.217-7.8-4.584-14.768-14.428-22.508-22.535a91.307,91.307,0,0,0-12.157-10.658c-7.686-5.613-15.286-8.982-22.649-8.324a21.54,21.54,0,0,0-11.657,4.987c-2.249,1.833-4.45,4.193-6.94,5.8a10.237,10.237,0,0,1-3.436,1.468,5.229,5.229,0,0,1-4.273-.826c-3.823-2.8-4.855-9.9-7.861-13.539a5.515,5.515,0,0,0-5.58-2.1c-2.991.584-6.323,3.221-9.176,6.75-4.178,5.168-7.833,11.63-11.852,15.589a21.66,21.66,0,0,1-2.024,1.779c-4.744,3.656-10.579,3.326-14.842-4.451-2.267-4.163-3.993-9.82-6.514-13.162-2.476-3.282-5.618-3.489-8.276-1.018-1.948,1.811-3.415,5.456-4.579,9.345s-2.277,8.192-3.8,10.869c-1.521,2.659-3.538,2.4-3.4.767" transform="translate(291.045 -1593.385)"/>
        <path id="Path_9" data-name="Path 9" class="cls-3" d="M-79.891,1694.085c-3.258-8.111-6.615-16.358-10.94-21.58-3.582-4.327-8.071-6.11-11.786-2.88-2.4,2.085-4.244,5.857-5.968,10.19-1.263,3.167-2.436,6.587-3.774,9.65a35.876,35.876,0,0,1-4.753,8.163c-5.4,6.678-12.194,7.32-18.1,4.371-7.776-3.937-14.827-13.108-22.559-20.979a117.01,117.01,0,0,0-12.08-10.666c-7.6-5.847-15.021-9.866-22.278-9.9a19.524,19.524,0,0,0-11.567,3.774c-2.25,1.594-4.462,3.721-6.946,5.209a11.27,11.27,0,0,1-3.423,1.392,5.577,5.577,0,0,1-4.252-.642c-3.815-2.446-4.99-8.762-8.006-11.834a5.347,5.347,0,0,0-5.524-1.432c-2.948.805-6.229,3.536-9.071,7.04-4.164,5.135-7.857,11.355-11.894,14.932a18.609,18.609,0,0,1-2.027,1.58c-4.737,3.178-10.433,2.316-14.661-5.451-2.266-4.193-4.051-9.771-6.59-13.071-2.478-3.22-5.586-3.457-8.245-1.061-2.107,1.9-3.673,5.866-4.916,10.064s-2.45,8.832-4.15,11.592c-1.7,2.743-3.988,2.142-3.845-.036" transform="translate(302.351 -1562.693)"/>
        <path id="Path_10" data-name="Path 10" class="cls-3" d="M-91.1,1659.585c-3.321-8.23-6.744-16.6-11.146-21.885-3.566-4.284-8.015-6.085-11.729-3.029-2.4,1.974-4.277,5.6-6.022,9.834-1.28,3.1-2.459,6.474-3.787,9.531a39.244,39.244,0,0,1-4.679,8.251c-5.306,6.893-12,7.982-17.891,5.525-7.753-3.29-14.887-11.788-22.61-19.423-3.928-3.879-7.994-7.426-12-10.674-7.506-6.082-14.754-10.719-21.907-11.477a18.1,18.1,0,0,0-11.476,2.562c-2.252,1.353-4.474,3.249-6.953,4.619a12.636,12.636,0,0,1-3.409,1.317,6.043,6.043,0,0,1-4.231-.458c-3.807-2.088-5.125-7.628-8.151-10.129a5.354,5.354,0,0,0-5.467-.767c-2.905,1.026-6.135,3.849-8.966,7.33-4.15,5.1-7.881,11.08-11.936,14.275a16.005,16.005,0,0,1-2.03,1.38c-4.731,2.7-10.287,1.3-14.48-6.452-2.265-4.222-4.108-9.721-6.667-12.981-2.48-3.159-5.555-3.429-8.214-1.1-2.267,1.982-3.93,6.276-5.253,10.783s-2.622,9.471-4.5,12.315c-1.875,2.828-4.438,1.88-4.289-.84" transform="translate(313.658 -1531.166)"/>
        <path id="Path_11" data-name="Path 11" class="cls-3" d="M-102.3,1624.118c-3.384-8.349-6.873-16.837-11.353-22.19-3.551-4.242-7.959-6.061-11.672-3.178-2.4,1.862-4.309,5.335-6.076,9.478-1.3,3.031-2.481,6.362-3.8,9.411a43.156,43.156,0,0,1-4.605,8.34c-5.217,7.109-11.8,8.644-17.681,6.679-7.73-2.643-14.946-10.468-22.661-17.867-3.925-3.76-7.965-7.309-11.927-10.682-7.416-6.316-14.487-11.572-21.536-13.054a17.153,17.153,0,0,0-11.385,1.35c-2.253,1.113-4.486,2.777-6.96,4.03a14.517,14.517,0,0,1-3.4,1.241,6.679,6.679,0,0,1-4.21-.274c-3.8-1.731-5.258-6.5-8.3-8.424a5.583,5.583,0,0,0-5.411-.1c-2.862,1.248-6.042,4.164-8.861,7.62-4.135,5.068-7.905,10.8-11.978,13.618a13.809,13.809,0,0,1-2.033,1.181c-4.724,2.221-10.141.295-14.3-7.453-2.264-4.251-4.165-9.672-6.743-12.89-2.482-3.1-5.525-3.405-8.183-1.147-2.427,2.062-4.188,6.686-5.591,11.5s-2.795,10.11-4.848,13.038-4.887,1.618-4.732-1.643" transform="translate(324.966 -1498.674)"/>
        <path id="Path_12" data-name="Path 12" class="cls-3" d="M-113.512,1580.527c-3.448-8.469-7-17.077-11.56-22.495-3.535-4.2-7.9-6.036-11.615-3.327-2.405,1.75-4.342,5.074-6.13,9.121-1.312,2.963-2.5,6.25-3.812,9.291a47.768,47.768,0,0,1-4.532,8.428c-5.127,7.326-11.6,9.306-17.471,7.833-7.708-2-15-9.148-22.712-16.31-3.922-3.641-7.937-7.192-11.85-10.69-7.327-6.551-14.221-12.424-21.166-14.63a16.674,16.674,0,0,0-11.295.138c-2.255.872-4.5,2.305-6.967,3.44a17.288,17.288,0,0,1-3.383,1.166,7.562,7.562,0,0,1-4.189-.091c-3.791-1.374-5.392-5.364-8.441-6.719a6.106,6.106,0,0,0-5.354.564c-2.819,1.47-5.948,4.478-8.756,7.909-4.121,5.035-7.93,10.53-12.02,12.962a12.01,12.01,0,0,1-2.036.982c-4.718,1.742-9.995-.716-14.117-8.454-2.263-4.281-4.222-9.624-6.819-12.8-2.484-3.037-5.5-3.384-8.152-1.191-2.588,2.137-4.445,7.1-5.928,12.221s-2.967,10.75-5.2,13.761-5.337,1.356-5.176-2.447" transform="translate(336.275 -1457.538)"/>
        <path id="Path_13" data-name="Path 13" class="cls-3" d="M-124.72,1535.585c-3.511-8.588-7.129-17.318-11.767-22.8-3.518-4.159-7.847-6.012-11.558-3.475-2.406,1.638-4.375,4.813-6.184,8.765-1.328,2.895-2.527,6.137-3.825,9.171a53.236,53.236,0,0,1-4.458,8.516c-5.036,7.543-11.407,9.968-17.261,8.987-7.685-1.349-15.064-7.828-22.763-14.754-3.919-3.521-7.908-7.075-11.773-10.7-7.237-6.785-13.954-13.276-20.795-16.207a16.666,16.666,0,0,0-11.2-1.075,68.014,68.014,0,0,0-6.974,2.85,21.691,21.691,0,0,1-3.369,1.09,8.827,8.827,0,0,1-4.168.093c-3.783-1.017-5.525-4.235-8.586-5.014a7.043,7.043,0,0,0-5.3,1.229,38.517,38.517,0,0,0-8.651,8.2c-4.107,5-7.954,10.255-12.062,12.305a10.553,10.553,0,0,1-2.04.782c-4.711,1.263-9.849-1.726-13.936-9.454-2.262-4.31-4.279-9.575-6.9-12.709-2.486-2.977-5.466-3.366-8.121-1.234-2.75,2.209-4.7,7.507-6.265,12.94s-3.139,11.389-5.546,14.484-5.786,1.094-5.619-3.25" transform="translate(347.585 -1415.041)"/>
        <path id="Path_14" data-name="Path 14" class="cls-3" d="M-135.929,1489.913c-3.574-8.707-7.258-17.559-11.974-23.1-3.5-4.118-7.791-5.987-11.5-3.624-2.406,1.527-4.408,4.552-6.239,8.409-1.345,2.827-2.549,6.024-3.838,9.052a59.872,59.872,0,0,1-4.384,8.6c-4.946,7.761-11.21,10.63-17.051,10.141-7.662-.7-15.123-6.508-22.814-13.2-3.915-3.4-7.88-6.958-11.7-10.706-7.147-7.02-13.687-14.126-20.424-17.783a17.142,17.142,0,0,0-11.114-2.287,42.575,42.575,0,0,0-6.981,2.26,29.659,29.659,0,0,1-3.356,1.015,10.734,10.734,0,0,1-4.147.277c-3.775-.66-5.658-3.107-8.731-3.309a8.58,8.58,0,0,0-5.241,1.9,48.177,48.177,0,0,0-8.546,8.489c-4.093,4.969-7.978,9.98-12.1,11.649a9.416,9.416,0,0,1-2.043.583c-4.7.785-9.7-2.737-13.755-10.455-2.26-4.339-4.336-9.527-6.972-12.618-2.487-2.917-5.437-3.35-8.09-1.277-2.912,2.276-4.961,7.917-6.6,13.659s-3.312,12.029-5.9,15.207-6.236.831-6.062-4.053" transform="translate(358.894 -1371.859)"/>
        <path id="Path_15" data-name="Path 15" class="cls-3" d="M-147.137,1443.448c-3.637-8.827-7.386-17.8-12.18-23.409-3.486-4.077-7.734-5.962-11.445-3.772-2.406,1.415-4.441,4.29-6.293,8.053-1.361,2.759-2.572,5.912-3.85,8.932a67.98,67.98,0,0,1-4.31,8.693c-4.855,7.979-11.014,11.292-16.841,11.3-7.639-.055-15.182-5.188-22.865-11.642a156.744,156.744,0,0,1-11.62-10.714c-7.057-7.254-13.421-14.977-20.053-19.36-3.549-2.345-7.293-3.744-11.023-3.5a30.284,30.284,0,0,0-6.987,1.67c-1.082.341-2.211.671-3.343.939a13.841,13.841,0,0,1-4.126.461c-3.767-.3-5.791-1.981-8.876-1.6a11,11,0,0,0-5.185,2.56,63.029,63.029,0,0,0-8.441,8.778c-4.079,4.936-8,9.705-12.145,10.992a8.565,8.565,0,0,1-2.046.384c-4.7.307-9.556-3.747-13.573-11.456-2.259-4.368-4.393-9.48-7.048-12.528-2.489-2.857-5.408-3.336-8.059-1.32-3.074,2.339-5.218,8.328-6.94,14.378s-3.484,12.668-6.245,15.929-6.685.569-6.506-4.857" transform="translate(370.204 -1327.935)"/>
        <path id="Path_16" data-name="Path 16" class="cls-3" d="M-158.346,1396.157c-3.7-8.946-7.514-18.043-12.387-23.713-3.47-4.037-7.678-5.938-11.388-3.921-2.406,1.3-4.474,4.029-6.347,7.7-1.377,2.691-2.595,5.8-3.863,8.813a78.163,78.163,0,0,1-4.236,8.781c-4.765,8.2-10.817,11.954-16.631,12.449-7.617.593-15.241-3.868-22.916-10.086a111.9,111.9,0,0,1-11.543-10.722c-6.967-7.489-13.154-15.826-19.682-20.936-3.49-2.732-7.2-4.557-10.932-4.712a23.358,23.358,0,0,0-6.994,1.08c-1.08.289-2.2.591-3.33.864a19.61,19.61,0,0,1-4.105.644c-3.759.055-5.924-.857-9.021.1a14.787,14.787,0,0,0-5.128,3.226,88.6,88.6,0,0,0-8.336,9.068c-4.064,4.9-8.026,9.43-12.187,10.335a7.99,7.99,0,0,1-2.049.184c-4.691-.172-9.41-4.758-13.392-12.457-2.258-4.4-4.449-9.433-7.124-12.437-2.491-2.8-5.379-3.324-8.027-1.364-3.238,2.4-5.476,8.738-7.277,15.1s-3.656,13.308-6.594,16.653-7.135.307-6.949-5.66" transform="translate(381.514 -1283.237)"/>
        <path id="Path_17" data-name="Path 17" class="cls-3" d="M-169.556,1347.859c-3.764-9.065-7.642-18.286-12.594-24.018-3.453-4-7.622-5.913-11.331-4.07-2.407,1.192-4.507,3.768-6.4,7.341-1.393,2.623-2.618,5.687-3.876,8.693a91.324,91.324,0,0,1-4.162,8.87c-4.674,8.417-10.62,12.616-16.421,13.6-7.594,1.24-15.3-2.548-22.967-8.53a86.86,86.86,0,0,1-11.467-10.73c-6.877-7.723-12.888-16.674-19.312-22.512-3.43-3.118-7.115-5.37-10.842-5.924a19.124,19.124,0,0,0-7,.49c-1.078.237-2.2.511-3.316.788a33.634,33.634,0,0,1-4.084.828c-3.751.412-6.058.265-9.166,1.807a20.667,20.667,0,0,0-5.072,3.891c-2.6,2.59-5.479,6.048-8.231,9.358-4.05,4.869-8.051,9.155-12.229,9.678a7.627,7.627,0,0,1-2.053-.015c-4.684-.651-9.264-5.769-13.211-13.457-2.257-4.427-4.506-9.386-7.2-12.347-2.492-2.738-5.35-3.314-8-1.407-3.4,2.451-5.734,9.148-7.615,15.816s-3.829,13.947-6.943,17.375-7.585.045-7.393-6.464" transform="translate(392.824 -1237.595)"/>
        <path id="Path_18" data-name="Path 18" class="cls-3" d="M-180.766,1298.516c-3.827-9.185-7.769-18.53-12.8-24.323-3.437-3.957-7.566-5.889-11.274-4.219-2.407,1.08-4.54,3.507-6.455,6.985a89.408,89.408,0,0,0-3.889,8.573c-1.323,3.174-2.653,6.255-4.088,8.958-4.583,8.637-10.423,13.279-16.212,14.757-7.571,1.887-15.359-1.228-23.018-6.974a70.911,70.911,0,0,1-11.39-10.738c-6.787-7.958-12.628-17.5-18.941-24.089-3.374-3.489-7.026-6.185-10.751-7.136a16.443,16.443,0,0,0-7.008-.1c-1.077.185-2.188.431-3.3.713-1.413.356-2.786.744-4.064,1.012-3.743.769-6.192,1.386-9.311,3.512a29.923,29.923,0,0,0-5.016,4.557c-2.56,2.815-5.385,6.363-8.126,9.647-4.036,4.836-8.075,8.88-12.271,9.022a7.481,7.481,0,0,1-2.056-.214c-4.678-1.129-9.118-6.779-13.029-14.458-2.256-4.456-4.562-9.339-7.277-12.256-2.494-2.679-5.321-3.3-7.965-1.45-3.565,2.5-5.991,9.559-7.952,16.535s-4,14.586-7.292,18.1-8.034-.218-7.836-7.267" transform="translate(404.135 -1190.975)"/>
        <path id="Path_19" data-name="Path 19" class="cls-3" d="M-191.975,1246.953c-3.89-9.3-7.9-18.774-13.007-24.627-3.42-3.918-7.51-5.864-11.217-4.367-2.407.968-4.573,3.246-6.509,6.629a75.655,75.655,0,0,0-3.9,8.453c-1.31,3.161-2.611,6.28-4.014,9.046-4.491,8.857-10.227,13.941-16,15.912-7.548,2.534-15.418.093-23.069-5.418a59.85,59.85,0,0,1-11.313-10.746c-6.7-8.192-12.362-18.347-18.57-25.665-3.315-3.877-6.937-7-10.661-8.348a14.738,14.738,0,0,0-7.015-.689,26.22,26.22,0,0,0-3.29.638c-1.4.362-2.767.806-4.043,1.2a23.467,23.467,0,0,0-9.457,5.217A44.811,44.811,0,0,0-339,1219.4c-2.516,3.041-5.291,6.677-8.021,9.937-4.022,4.8-8.1,8.605-12.313,8.365a7.522,7.522,0,0,1-2.059-.414c-4.671-1.608-8.972-7.79-12.848-15.459-2.255-4.485-4.619-9.293-7.353-12.165-2.5-2.621-5.292-3.3-7.934-1.493-3.73,2.545-6.249,9.969-8.289,17.254s-4.173,15.226-7.641,18.821-8.484-.48-8.28-8.07" transform="translate(415.445 -1142.114)"/>
        <path id="Path_20" data-name="Path 20" class="cls-3" d="M-203.184,1189.387c-3.954-9.423-8.02-19.038-13.214-24.932-3.4-3.892-7.454-5.839-11.16-4.516-2.408.857-4.606,2.985-6.563,6.273a65.1,65.1,0,0,0-3.914,8.334c-1.3,3.147-2.567,6.311-3.94,9.135-4.393,9.094-10.03,14.6-15.792,17.065-7.526,3.181-15.477,1.413-23.12-3.862a51.732,51.732,0,0,1-11.237-10.754c-6.608-8.427-12.1-19.2-18.2-27.242-3.256-4.264-6.847-7.828-10.57-9.56a13.588,13.588,0,0,0-7.022-1.279,18.432,18.432,0,0,0-3.276.562,34.2,34.2,0,0,0-4.022,1.38,26.058,26.058,0,0,0-9.6,6.922,69.5,69.5,0,0,0-4.9,5.887c-2.472,3.267-5.2,6.991-7.916,10.227-4.008,4.77-8.123,8.33-12.354,7.708a7.733,7.733,0,0,1-2.062-.613c-4.664-2.086-8.826-8.8-12.667-16.46-2.254-4.515-4.675-9.247-7.429-12.075-2.5-2.563-5.263-3.289-7.9-1.536-3.9,2.586-6.506,10.379-8.626,17.973s-4.346,15.865-7.99,19.544-8.933-.742-8.723-8.874" transform="translate(426.756 -1086.947)"/>
        <path id="Path_21" data-name="Path 21" class="cls-3" d="M-214.394,1130.474c-4.017-9.542-8.148-19.279-13.421-25.237-3.385-3.85-7.4-5.815-11.1-4.665-2.408.745-4.639,2.724-6.617,5.917a56.754,56.754,0,0,0-3.927,8.214c-1.283,3.133-2.525,6.335-3.866,9.223-4.3,9.312-9.833,15.265-15.582,18.22-7.5,3.828-15.536,2.733-23.171-2.305a45.529,45.529,0,0,1-11.16-10.763c-6.518-8.661-11.83-20.05-17.828-28.818-3.2-4.652-6.758-8.64-10.479-10.773a13.031,13.031,0,0,0-7.028-1.869,14.132,14.132,0,0,0-3.263.487,21.623,21.623,0,0,0-4,1.563c-3.719,1.841-6.6,4.747-9.747,8.627-1.576,1.943-3.205,4.192-4.846,6.553-2.428,3.493-5.1,7.3-7.811,10.516-3.993,4.737-8.147,8.056-12.4,7.052a8.106,8.106,0,0,1-2.066-.813c-4.658-2.565-8.68-9.811-12.485-17.46-2.252-4.544-4.73-9.213-7.506-11.984-2.5-2.515-5.234-3.283-7.872-1.58-4.061,2.621-6.764,10.789-8.964,18.692s-4.518,16.5-8.34,20.267-9.383-1-9.167-9.677" transform="translate(438.067 -1030.467)"/>
        <path id="Path_22" data-name="Path 22" class="cls-3" d="M-225.6,1070.416c-4.08-9.662-8.276-19.52-13.628-25.541-3.369-3.808-7.342-5.79-11.046-4.814-2.408.633-4.672,2.462-6.671,5.561a50.006,50.006,0,0,0-3.94,8.094c-1.27,3.12-2.482,6.36-3.792,9.311-4.212,9.528-9.636,15.927-15.372,19.374-7.48,4.475-15.595,4.053-23.222-.749a40.634,40.634,0,0,1-11.083-10.771c-6.428-8.9-11.564-20.9-17.458-30.395-3.138-5.039-6.669-9.452-10.389-11.985a12.818,12.818,0,0,0-7.035-2.459,11.4,11.4,0,0,0-3.25.411,16.244,16.244,0,0,0-3.98,1.747c-3.711,2.2-6.736,5.867-9.892,10.332-1.579,2.234-3.18,4.714-4.79,7.218a103.031,103.031,0,0,1-7.706,10.806c-3.979,4.7-8.172,7.781-12.438,6.4a8.632,8.632,0,0,1-2.069-1.012c-4.651-3.043-8.534-10.821-12.3-18.461-2.251-4.573-4.787-9.165-7.582-11.894-2.5-2.454-5.2-3.278-7.841-1.623-4.226,2.653-7.021,11.2-9.3,19.411s-4.691,17.144-8.689,20.99-9.832-1.266-9.61-10.48" transform="translate(449.378 -972.882)"/>
        <path id="Path_23" data-name="Path 23" class="cls-3" d="M-236.814,1009.395c-4.143-9.781-8.4-19.761-13.835-25.846-3.353-3.767-7.286-5.766-10.99-4.962-2.409.522-4.7,2.2-6.725,5.2a44.44,44.44,0,0,0-3.953,7.975c-1.257,3.106-2.44,6.384-3.718,9.4-4.121,9.745-9.439,16.589-15.162,20.528-7.457,5.122-15.654,5.373-23.273.807a36.678,36.678,0,0,1-11.007-10.779c-6.338-9.13-11.3-21.753-17.087-31.971-3.079-5.427-6.58-10.264-10.3-13.2A12.88,12.88,0,0,0-359.9,963.5a9.539,9.539,0,0,0-3.237.336,13.316,13.316,0,0,0-3.959,1.931c-3.7,2.555-6.875,6.98-10.037,12.037-1.583,2.521-3.157,5.229-4.733,7.884a82.473,82.473,0,0,1-7.6,11.1c-3.965,4.67-8.2,7.506-12.48,5.739a9.31,9.31,0,0,1-2.072-1.212c-4.644-3.522-8.387-11.832-12.123-19.462-2.25-4.6-4.844-9.117-7.658-11.8-2.5-2.394-5.175-3.273-7.81-1.666-4.393,2.679-7.279,11.61-9.638,20.13s-4.863,17.784-9.038,21.713-10.282-1.529-10.054-11.284" transform="translate(460.689 -914.373)"/>
        <path id="Path_24" data-name="Path 24" class="cls-3" d="M-248.024,947.562c-4.207-9.9-8.533-20-14.041-26.151s-12.531-7.641-17.712-.263c-3.083,4.391-5.173,11.319-7.609,17.343-11.957,29.555-34.314,35.579-49.206,13.258-6.248-9.364-11.032-22.6-16.716-33.548s-12.964-19.927-20.48-17.788c-7.338,2.088-13.113,14.066-18.8,24.406s-12.8,20.071-20.018,16.467c-5.675-2.835-9.783-13.154-14.017-21.873s-9.9-16.75-15.514-13.422c-4.559,2.7-7.537,12.02-9.976,20.849s-5.035,18.423-9.387,22.436-10.731-1.791-10.5-12.087" transform="translate(472 -855.092)"/>
        <path id="Path_25" data-name="Path 25" class="cls-3" d="M-453.672,972.979c-.207,9.665,5.937,15.046,10.157,11.068s6.7-13.38,9.194-21.767a77.419,77.419,0,0,1,3.888-10.457c1.842-3.959,3.893-6.815,6.558-8.153,5.609-2.815,11.237,4.368,15.521,12.52,1.785,3.4,3.55,7.086,5.412,10.492,2.608,4.768,5.375,8.969,8.648,10.763,4.4,2.406,8.762-.008,12.831-4.633a63.222,63.222,0,0,0,7.114-10.447c2.923-5.164,5.864-10.828,9-15.427,3-4.4,6.2-7.827,9.765-8.928,3.124-.968,6.214-.022,9.172,2.257,4.124,3.177,7.944,8.923,11.246,15.308,3.651,7.061,6.943,15.037,10.535,22.083a81.12,81.12,0,0,0,6.273,10.58,30.789,30.789,0,0,0,9.918,9.206,21.415,21.415,0,0,0,18.75.9,30.912,30.912,0,0,0,12.329-9.312,54.881,54.881,0,0,0,7.889-13.179c.714-1.633,1.4-3.354,2.094-5.088,1.711-4.276,3.415-8.624,5.59-11.79,4.449-6.466,10.191-6.706,15.245-2.88a18.764,18.764,0,0,1,2.251,2.021,44.7,44.7,0,0,1,6.671,9.713,164.617,164.617,0,0,1,7.25,16.274" transform="translate(454.212 -890.199)"/>
        <path id="Path_26" data-name="Path 26" class="cls-3" d="M-435.351,1008.547c-.179,9.034,5.728,13.992,9.816,10.049s6.46-13.145,9-21.1a52.137,52.137,0,0,1,4.215-9.732c1.927-3.434,3.951-5.5,6.7-6.638,5.594-2.321,11.193,4.034,15.527,11.618,1.806,3.16,3.594,6.628,5.475,9.908,2.635,4.592,5.393,8.794,8.629,10.728,4.347,2.587,8.646.622,12.716-3.677a55.077,55.077,0,0,0,7.156-10.016c2.942-5.043,5.895-10.659,9.02-15.256,2.985-4.39,6.173-7.866,9.715-9.047,3.109-1.042,6.19-.2,9.149,2.04,4.124,3.119,7.914,8.9,11.207,15.3,3.641,7.074,6.938,15.025,10.576,21.812a68.543,68.543,0,0,0,6.323,9.965,27.5,27.5,0,0,0,9.86,8.2c5.956,2.781,12.454,2.454,18.644.295a29.7,29.7,0,0,0,12.189-8.037,46.658,46.658,0,0,0,7.872-11.977c.724-1.529,1.426-3.157,2.134-4.819,1.752-4.1,3.468-8.386,5.625-11.594,4.4-6.527,10-7.288,15.029-3.841a16.58,16.58,0,0,1,2.25,1.861,39.557,39.557,0,0,1,6.7,9.429,134.8,134.8,0,0,1,7.1,16.395" transform="translate(436.425 -925.094)"/>
        <path id="Path_27" data-name="Path 27" class="cls-3" d="M-417.033,1043.788c-.152,8.4,5.52,12.937,9.476,9.03s6.236-12.9,8.807-20.428a35.979,35.979,0,0,1,4.541-9.007,12.191,12.191,0,0,1,6.844-5.123c5.573-1.846,11.15,3.7,15.534,10.717,1.827,2.924,3.637,6.17,5.538,9.324,2.663,4.416,5.411,8.62,8.609,10.693,4.293,2.767,8.526,1.227,12.6-2.72a48.6,48.6,0,0,0,7.2-9.585c2.961-4.923,5.925-10.491,9.039-15.085,2.971-4.383,6.146-7.906,9.665-9.166,3.093-1.116,6.167-.372,9.126,1.824,4.124,3.061,7.884,8.885,11.169,15.3,3.632,7.087,6.933,15.014,10.617,21.542a58.279,58.279,0,0,0,6.374,9.35,24.743,24.743,0,0,0,9.8,7.189c5.9,2.253,12.369,1.548,18.538-.306a29.171,29.171,0,0,0,12.05-6.762,39.342,39.342,0,0,0,7.854-10.775c.734-1.427,1.45-2.96,2.174-4.55,1.792-3.921,3.522-8.149,5.66-11.4,4.352-6.588,9.807-7.869,14.814-4.8a14.65,14.65,0,0,1,2.248,1.7,35.141,35.141,0,0,1,6.726,9.145,114.513,114.513,0,0,1,6.953,16.516" transform="translate(418.64 -959.677)"/>
        <path id="Path_28" data-name="Path 28" class="cls-3" d="M-398.716,1078.522c-.124,7.772,5.311,11.883,9.136,8.011s6.023-12.646,8.614-19.759a25.182,25.182,0,0,1,4.868-8.282c2.1-2.368,4.059-2.875,6.988-3.609,5.548-1.39,11.107,3.366,15.541,9.815,1.848,2.687,3.681,5.712,5.6,8.74,2.691,4.239,5.429,8.445,8.59,10.658,4.238,2.947,8.409,1.849,12.485-1.764a42.54,42.54,0,0,0,7.24-9.154c2.979-4.8,5.956-10.323,9.058-14.915,2.957-4.377,6.12-7.946,9.616-9.285,3.078-1.19,6.143-.548,9.1,1.607,4.124,3,7.854,8.866,11.131,15.29,3.622,7.1,6.929,15,10.658,21.272a48.921,48.921,0,0,0,6.425,8.735,22.228,22.228,0,0,0,9.745,6.181c5.836,1.725,12.285.642,18.432-.906a29.611,29.611,0,0,0,11.91-5.486,32.545,32.545,0,0,0,7.837-9.574c.744-1.324,1.475-2.762,2.213-4.28,1.833-3.744,3.575-7.911,5.7-11.2,4.3-6.649,9.615-8.45,14.6-5.763a12.935,12.935,0,0,1,2.247,1.54,31.319,31.319,0,0,1,6.754,8.86,99.814,99.814,0,0,1,6.8,16.637" transform="translate(400.857 -993.781)"/>
        <path id="Path_29" data-name="Path 29" class="cls-3" d="M-380.4,1112.489c-.1,7.141,5.1,10.829,8.8,6.991s5.82-12.379,8.42-19.09a18.041,18.041,0,0,1,5.195-7.557c2.185-1.839,4.109-1.574,7.131-2.094,5.519-.952,11.064,3.032,15.547,8.913,1.868,2.45,3.725,5.254,5.663,8.156,2.719,4.063,5.448,8.27,8.571,10.624,4.183,3.127,8.293,2.472,12.369-.808a37.266,37.266,0,0,0,7.281-8.723c3-4.682,5.987-10.155,9.077-14.744,2.944-4.371,6.093-7.985,9.566-9.4,3.063-1.264,6.119-.723,9.079,1.391,4.124,2.946,7.824,8.847,11.092,15.283,3.612,7.113,6.924,14.99,10.7,21a40.923,40.923,0,0,0,6.475,8.121,20.087,20.087,0,0,0,9.687,5.172c5.776,1.2,12.2-.263,18.325-1.507,4.328-.879,8.213-1.837,11.771-4.211a26.562,26.562,0,0,0,7.82-8.372c.754-1.221,1.5-2.565,2.253-4.011,1.873-3.567,3.629-7.673,5.731-11.006,4.256-6.709,9.423-9.031,14.383-6.724a11.454,11.454,0,0,1,2.246,1.38,28,28,0,0,1,6.781,8.576,88.706,88.706,0,0,1,6.657,16.758" transform="translate(383.076 -1027.162)"/>
        <path id="Path_30" data-name="Path 30" class="cls-3" d="M-362.089,1145.321c-.069,6.51,4.894,9.775,8.455,5.972s5.628-12.1,8.227-18.421a13.3,13.3,0,0,1,5.521-6.832c2.269-1.31,4.19.442,7.274-.58,5.432-1.8,11.02,2.7,15.554,8.011,1.889,2.214,3.768,4.8,5.726,7.571,2.746,3.887,5.466,8.1,8.551,10.589,4.129,3.307,8.177,3.1,12.254.149a32.675,32.675,0,0,0,7.323-8.292c3.017-4.561,6.018-9.986,9.1-14.574,2.93-4.365,6.066-8.025,9.516-9.523,3.048-1.338,6.1-.9,9.056,1.174,4.124,2.888,7.793,8.828,11.054,15.277,3.6,7.126,6.919,14.979,10.74,20.731a34.15,34.15,0,0,0,6.526,7.506,18.212,18.212,0,0,0,9.63,4.164c5.716.694,12.117-1.169,18.219-2.108,4.312-.663,8.125-1.1,11.631-2.935a21.459,21.459,0,0,0,7.8-7.17c.765-1.117,1.523-2.368,2.293-3.742,1.914-3.39,3.683-7.436,5.766-10.81,4.207-6.77,9.229-9.59,14.168-7.685a10.313,10.313,0,0,1,2.245,1.219,25.093,25.093,0,0,1,6.809,8.292,80.016,80.016,0,0,1,6.508,16.878" transform="translate(365.298 -1059.476)"/>
        <path id="Path_31" data-name="Path 31" class="cls-3" d="M-343.78,1176.945c-.041,5.878,4.686,8.72,8.114,4.953s5.444-11.813,8.034-17.751c1.7-3.9,4.033-5.5,5.848-6.107,2.353-.782,4.23,1.808,7.418.935,5.413-1.483,10.977,2.365,15.561,7.11a72.7,72.7,0,0,1,5.789,6.987c2.774,3.711,5.484,7.92,8.532,10.554,4.074,3.488,8.062,3.72,12.139,1.105a28.5,28.5,0,0,0,7.365-7.861c3.04-4.427,6.048-9.818,9.115-14.4,2.916-4.358,6.039-8.064,9.466-9.642a8.652,8.652,0,0,1,9.032.958c4.124,2.831,7.763,8.808,11.016,15.271,3.593,7.139,6.914,14.967,10.781,20.461a28.476,28.476,0,0,0,6.576,6.891,16.839,16.839,0,0,0,9.572,3.156c5.657.169,12.032-2.075,18.113-2.708,4.3-.448,8.038-.35,11.492-1.66a17.156,17.156,0,0,0,7.786-5.969,39.022,39.022,0,0,0,2.332-3.473c1.951-3.222,3.736-7.2,5.8-10.614,4.159-6.831,9.037-10.169,13.952-8.646a9.2,9.2,0,0,1,2.244,1.059,22.552,22.552,0,0,1,6.837,8.008,73.032,73.032,0,0,1,6.36,17" transform="translate(347.522 -1090.655)"/>
        <path id="Path_32" data-name="Path 32" class="cls-3" d="M-325.473,1207.165c-.014,5.247,4.477,7.666,7.774,3.934s5.269-11.511,7.84-17.082c1.807-3.915,4.291-5.184,6.174-5.382,2.437-.256,4.268,3.152,7.561,2.449,5.4-1.151,10.934,2.031,15.567,6.208a52.23,52.23,0,0,1,5.852,6.4c2.8,3.535,5.5,7.745,8.513,10.519,4.02,3.668,7.946,4.346,12.023,2.061,2.575-1.443,5.079-4.151,7.407-7.429,3.058-4.305,6.079-9.65,9.134-14.233,2.9-4.352,6.013-8.1,9.417-9.761a8.5,8.5,0,0,1,9.009.742c4.124,2.773,7.733,8.789,10.977,15.264,3.584,7.152,6.909,14.955,10.822,20.191a23.771,23.771,0,0,0,6.627,6.276,15.866,15.866,0,0,0,9.514,2.147c5.6-.357,11.948-2.981,18.007-3.309,4.281-.232,7.95.386,11.352-.385a13.847,13.847,0,0,0,7.769-4.767,30.221,30.221,0,0,0,2.372-3.2c1.992-3.046,3.79-6.961,5.836-10.418,4.111-6.892,8.846-10.748,13.737-9.607a8.268,8.268,0,0,1,2.242.9c2.445,1.417,4.806,4.087,6.865,7.724a67.324,67.324,0,0,1,6.211,17.12" transform="translate(329.749 -1120.514)"/>
        <path id="Path_33" data-name="Path 33" class="cls-3" d="M-307.17,1235.875c.014,4.616,4.269,6.611,7.434,2.915s5.1-11.2,7.647-16.413c1.916-3.923,4.549-4.866,6.5-4.657,2.521.27,4.3,4.473,7.7,3.964,5.379-.806,10.891,1.7,15.574,5.306a38.728,38.728,0,0,1,5.915,5.819c2.83,3.359,5.52,7.57,8.493,10.484,3.965,3.848,7.831,4.972,11.908,3.018,2.583-1.238,5.1-3.805,7.449-7,3.077-4.184,6.11-9.481,9.153-14.062,2.888-4.346,5.986-8.143,9.367-9.88a8.359,8.359,0,0,1,8.986.525c4.124,2.716,7.7,8.77,10.939,15.258,3.574,7.164,6.9,14.943,10.863,19.92a19.894,19.894,0,0,0,6.678,5.661,15.3,15.3,0,0,0,9.457,1.139c5.539-.884,11.864-3.887,17.9-3.91,4.266-.016,7.861,1.123,11.213.891a11.363,11.363,0,0,0,7.752-3.565,23.5,23.5,0,0,0,2.412-2.934c2.033-2.87,3.844-6.723,5.872-10.222,4.062-6.953,8.654-11.328,13.521-10.568a7.474,7.474,0,0,1,2.241.739c2.449,1.258,4.832,3.83,6.892,7.439a62.562,62.562,0,0,1,6.063,17.24" transform="translate(311.98 -1148.957)"/>
        <path id="Path_34" data-name="Path 34" class="cls-3" d="M-288.868,1263.093c.042,3.985,4.06,5.557,7.093,1.9s4.938-10.874,7.454-15.744c2.028-3.926,4.808-4.548,6.828-3.932,2.6.795,4.347,4.827,7.848,5.478,5.349.995,10.847,1.363,15.581,4.4a29.462,29.462,0,0,1,5.978,5.235c2.857,3.183,5.538,7.4,8.474,10.45,3.91,4.028,7.716,5.6,11.793,3.974,2.591-1.033,5.123-3.459,7.491-6.567,3.1-4.063,6.14-9.313,9.172-13.892,2.875-4.34,5.959-8.183,9.317-10a8.233,8.233,0,0,1,8.962.308c4.124,2.658,7.673,8.751,10.9,15.252,3.564,7.177,6.9,14.932,10.9,19.65a16.742,16.742,0,0,0,6.728,5.047,15.16,15.16,0,0,0,9.4.13c5.48-1.411,11.779-4.793,17.794-4.51,4.25.2,7.772,1.859,11.073,2.166a9.617,9.617,0,0,0,7.735-2.363,18.364,18.364,0,0,0,2.451-2.665c2.073-2.693,3.9-6.485,5.907-10.026,4.014-7.014,8.463-11.908,13.306-11.529a6.83,6.83,0,0,1,2.24.578c2.453,1.1,4.858,3.573,6.92,7.155,2.668,4.63,4.711,11.067,5.915,17.361" transform="translate(294.212 -1175.999)"/>
        <path id="Path_35" data-name="Path 35" class="cls-3" d="M-270.565,1288.913c.069,3.354,3.852,4.5,6.753.877s4.782-10.538,7.26-15.074c2.143-3.922,5.067-4.231,7.154-3.207,2.689,1.319,4.394,6.084,7.991,6.993,5.314,1.343,10.8,1.029,15.587,3.5a22.938,22.938,0,0,1,6.04,4.651c2.885,3.007,5.556,7.221,8.455,10.415,3.856,4.208,7.6,6.227,11.677,4.93,2.6-.827,5.145-3.113,7.533-6.136,3.115-3.942,6.171-9.145,9.191-13.721,2.861-4.333,5.933-8.222,9.268-10.119a8.121,8.121,0,0,1,8.939.092c4.124,2.6,7.642,8.732,10.862,15.245,3.555,7.19,6.895,14.92,10.946,19.38a14.2,14.2,0,0,0,6.779,4.432c3.078.839,6.217.239,9.342-.878,5.421-1.939,11.7-5.7,17.688-5.111,4.235.415,7.683,2.594,10.934,3.441a8.517,8.517,0,0,0,7.717-1.162,14.46,14.46,0,0,0,2.491-2.4c2.114-2.516,3.947-6.257,5.942-9.83,3.959-7.092,8.271-12.427,13.091-12.49a6.111,6.111,0,0,1,2.239.418c2.457.94,4.884,3.317,6.948,6.871,2.672,4.6,4.679,11.115,5.766,17.482" transform="translate(276.443 -1201.728)"/>
        <path id="Path_36" data-name="Path 36" class="cls-3" d="M-252.263,1304.016c.1,2.723,3.643,3.449,6.413-.142,2.776-3.607,4.629-10.191,7.067-14.405,2.262-3.91,5.325-3.914,7.481-2.482,2.773,1.843,4.442,7.332,8.134,8.507,5.281,1.68,10.761.7,15.594,2.6a18.255,18.255,0,0,1,6.1,4.067c2.913,2.83,5.575,7.046,8.435,10.38,3.8,4.389,7.487,6.856,11.562,5.886,2.608-.62,5.167-2.768,7.575-5.7,3.133-3.821,6.2-8.977,9.21-13.55,2.847-4.327,5.906-8.262,9.218-10.238a8.022,8.022,0,0,1,8.915-.125c4.124,2.543,7.612,8.713,10.824,15.239,3.545,7.2,6.89,14.908,10.987,19.109a12.177,12.177,0,0,0,6.829,3.817c3.079.5,6.2-.466,9.284-1.886,5.362-2.467,11.611-6.6,17.582-5.712,4.219.631,7.594,3.328,10.794,4.717,2.444,1.06,5.047,1.621,7.7.04a11.493,11.493,0,0,0,2.531-2.127c2.155-2.339,4-6.019,5.977-9.634,3.911-7.153,8.08-13.069,12.875-13.451a5.9,5.9,0,0,1,2.238.258c2.461.781,4.91,3.06,6.976,6.586,2.676,4.566,4.647,11.163,5.618,17.6" transform="translate(258.675 -1216.114)"/>
        <path id="Path_37" data-name="Path 37" class="cls-3" d="M-233.961,1315.791c.124,2.091,3.435,2.394,6.072-1.162,2.645-3.573,4.481-9.834,6.874-13.736s5.584-3.6,7.808-1.757c2.858,2.366,4.491,8.573,8.278,10.022,5.248,2.008,10.718.361,15.6,1.7a14.858,14.858,0,0,1,6.166,3.483c2.941,2.654,5.593,6.871,8.416,10.345,3.747,4.569,7.372,7.487,11.446,6.843,2.616-.413,5.189-2.422,7.617-5.274,3.152-3.7,6.233-8.808,9.229-13.38,2.833-4.321,5.879-8.3,9.168-10.357,2.94-1.857,5.93-2.125,8.892-.341,4.124,2.485,7.582,8.694,10.785,15.233,3.535,7.216,6.885,14.9,11.028,18.839a10.588,10.588,0,0,0,6.88,3.2c3.079.164,6.178-1.172,9.226-2.895,5.3-3,11.527-7.511,17.476-6.312,4.2.847,7.505,4.063,10.655,5.992,2.4,1.472,5,2.485,7.683,1.242a9.257,9.257,0,0,0,2.57-1.858c2.2-2.162,4.055-5.781,6.013-9.438,3.862-7.213,7.888-13.651,12.66-14.413a5.591,5.591,0,0,1,2.236.1c2.466.621,4.937,2.8,7,6.3,2.68,4.533,4.615,11.211,5.469,17.724" transform="translate(240.907 -1227.075)"/>
        <path id="Path_38" data-name="Path 38" class="cls-3" d="M-215.658,1326.361c.152,1.46,3.226,1.34,5.732-2.181,2.513-3.539,4.335-9.466,6.68-13.067,2.51-3.854,5.843-3.281,8.134-1.031,2.943,2.889,4.541,9.806,8.421,11.536,5.217,2.327,10.674.027,15.607.8a12.4,12.4,0,0,1,6.229,2.9c2.968,2.478,5.611,6.7,8.4,10.311,3.692,4.749,7.258,8.118,11.331,7.8,2.625-.205,5.211-2.077,7.659-4.843,3.17-3.581,6.263-8.64,9.248-13.209,2.819-4.315,5.852-8.341,9.119-10.476,2.925-1.931,5.906-2.3,8.869-.557,4.124,2.427,7.552,8.674,10.747,15.226,3.526,7.229,6.88,14.885,11.069,18.569a9.36,9.36,0,0,0,6.93,2.587c3.08-.172,6.158-1.878,9.169-3.9,5.244-3.526,11.442-8.417,17.37-6.913,4.189,1.062,7.417,4.8,10.515,7.268,2.361,1.883,4.956,3.349,7.666,2.443a7.589,7.589,0,0,0,2.61-1.588c2.237-1.985,4.112-5.535,6.048-9.242,3.82-7.257,7.7-14.233,12.444-15.374a5.378,5.378,0,0,1,2.235-.063c2.47.462,4.963,2.547,7.031,6.018,2.683,4.5,4.583,11.259,5.321,17.844" transform="translate(223.139 -1236.871)"/>
        <path id="Path_39" data-name="Path 39" class="cls-3" d="M-197.356,1335.917c.18.829,3.018.286,5.391-3.2,2.382-3.505,4.192-9.088,6.487-12.4,2.64-3.807,6.1-2.964,8.461-.306,3.027,3.412,4.592,11.031,8.565,13.051,5.188,2.638,10.631-.307,15.614-.1a10.61,10.61,0,0,1,6.292,2.315c3,2.3,5.629,6.521,8.377,10.276,3.637,4.929,7.143,8.638,11.216,8.756,2.633.076,5.232-1.732,7.7-4.412,3.188-3.461,6.294-8.472,9.267-13.039,2.806-4.308,5.826-8.38,9.069-10.6,2.91-2.005,5.883-2.476,8.845-.774,4.124,2.37,7.522,8.656,10.709,15.22,3.516,7.242,6.875,14.873,11.11,18.3a8.433,8.433,0,0,0,6.981,1.973c3.08-.507,6.138-2.585,9.111-4.911,5.185-4.057,11.358-9.323,17.263-7.514,4.173,1.278,7.328,5.53,10.375,8.543,2.32,2.294,4.91,4.215,7.649,3.645a6.351,6.351,0,0,0,2.65-1.319c2.277-1.807,4.165-5.3,6.083-9.046,3.772-7.318,7.505-14.816,12.229-16.335a5.243,5.243,0,0,1,2.234-.223c2.474.3,4.989,2.29,7.059,5.734,2.687,4.468,4.551,11.307,5.173,17.965" transform="translate(205.371 -1245.693)"/>
        <path id="Path_40" data-name="Path 40" class="cls-3" d="M-179.053,1342.128c.207.2,2.809-.769,5.051-4.219,2.251-3.472,4.05-8.7,6.294-11.728,2.773-3.743,6.362-2.648,8.787.419,3.113,3.935,4.645,12.249,8.708,14.565,5.161,2.943,10.588-.641,15.621-1.006a9.334,9.334,0,0,1,6.354,1.731c3.024,2.126,5.647,6.347,8.358,10.241,3.583,5.11,7.028,9.384,11.1,9.712,2.641.213,5.254-1.387,7.743-3.981,3.207-3.342,6.325-8.3,9.286-12.868,2.792-4.3,5.8-8.42,9.019-10.714,2.894-2.079,5.859-2.651,8.822-.99,4.124,2.312,7.491,8.636,10.67,15.214,3.507,7.255,6.87,14.861,11.151,18.028a7.758,7.758,0,0,0,7.032,1.358c3.081-.842,6.118-3.292,9.053-5.92,5.125-4.587,11.274-10.228,17.157-8.115,4.158,1.494,7.24,6.262,10.236,9.818,2.279,2.705,4.864,5.081,7.632,4.847a5.448,5.448,0,0,0,2.689-1.05c2.318-1.629,4.219-5.06,6.118-8.85,3.724-7.379,7.314-15.4,12.013-17.3a5.179,5.179,0,0,1,2.233-.383c2.478.144,5.015,2.033,7.087,5.449,2.691,4.435,4.518,11.355,5.024,18.086" transform="translate(187.602 -1251.368)"/>
        <path id="Path_41" data-name="Path 41" class="cls-3" d="M-160.751,1345.673a23.971,23.971,0,0,0,4.711-5.238c2.119-3.438,3.91-8.3,6.1-11.059,2.909-3.661,6.624-2.341,9.114,1.144,3.2,4.447,4.7,13.46,8.851,16.08,5.137,3.241,10.545-.974,15.628-1.907a8.445,8.445,0,0,1,6.417,1.147c3.052,1.95,5.665,6.172,8.339,10.206,3.528,5.29,6.913,10.019,10.985,10.668,2.649.422,5.274-1.053,7.785-3.55,3.222-3.236,6.355-8.135,9.3-12.7,2.778-4.3,5.772-8.459,8.969-10.833,2.879-2.153,5.835-2.827,8.8-1.207,4.124,2.254,7.461,8.617,10.632,15.208,3.5,7.268,6.865,14.85,11.192,17.758a7.29,7.29,0,0,0,7.082.743c3.082-1.176,6.1-4,9-6.928,5.066-5.119,11.189-11.134,17.051-8.715,4.142,1.709,7.152,6.995,10.1,11.094,2.238,3.116,4.818,5.948,7.615,6.049a4.769,4.769,0,0,0,2.729-.781c2.361-1.441,4.272-4.822,6.153-8.654,3.675-7.439,7.122-15.983,11.8-18.257a5.2,5.2,0,0,1,2.232-.543c2.482-.016,5.042,1.777,7.114,5.165,2.695,4.4,4.486,11.4,4.876,18.207" transform="translate(169.834 -1254.533)"/>
        <path id="Path_42" data-name="Path 42" class="cls-3" d="M-142.448,1348.719c.262-1.064,2.392-2.877,4.37-6.257,1.988-3.4,3.769-7.9,5.907-10.39,3.049-3.557,6.883-2.023,9.441,1.869,3.286,4.972,4.757,14.665,8.995,17.594,5.114,3.535,10.5-1.309,15.634-2.809a7.858,7.858,0,0,1,6.48.563c3.079,1.774,5.683,6,8.319,10.171,3.474,5.47,6.8,10.654,10.87,11.625,2.657.633,5.3-.708,7.827-3.119,3.241-3.115,6.386-7.967,9.324-12.527,2.764-4.29,5.745-8.5,8.92-10.953,2.864-2.227,5.812-3,8.775-1.423,4.124,2.2,7.431,8.6,10.593,15.2,3.487,7.281,6.861,14.838,11.233,17.487a7,7,0,0,0,7.133.128c3.083-1.509,6.074-4.719,8.938-7.936,5-5.672,11.105-12.04,16.945-9.316,4.127,1.925,7.067,7.716,9.957,12.369,2.2,3.518,4.772,6.816,7.6,7.25a4.336,4.336,0,0,0,2.769-.511c2.4-1.263,4.326-4.585,6.189-8.458,3.627-7.5,6.928-16.587,11.583-19.218a5.223,5.223,0,0,1,2.23-.7c2.487-.175,5.068,1.52,7.142,4.881,2.7,4.37,4.454,11.451,4.727,18.328" transform="translate(152.065 -1257.228)"/>
        <path id="Path_43" data-name="Path 43" class="cls-3" d="M-124.146,1351.355c.29-1.7,2.184-3.932,4.03-7.276,1.857-3.37,3.628-7.48,5.714-9.721,3.192-3.428,7.143-1.7,9.767,2.594,3.371,5.5,4.816,15.863,9.138,19.109,5.094,3.825,10.458-1.642,15.641-3.711a7.509,7.509,0,0,1,6.543-.022c3.107,1.6,5.7,5.822,8.3,10.137,3.419,5.65,6.683,11.291,10.754,12.581,2.665.845,5.318-.362,7.869-2.687,3.26-2.995,6.417-7.8,9.343-12.356,2.75-4.283,5.719-8.539,8.87-11.072,2.849-2.3,5.788-3.177,8.752-1.64,4.124,2.139,7.4,8.579,10.555,15.195,3.478,7.294,6.856,14.827,11.274,17.217,2.476,1.331,4.861.9,7.183-.487,3.084-1.842,6.054-5.425,8.88-8.945,4.941-6.2,11.021-12.946,16.839-9.917,4.111,2.141,6.979,8.451,9.817,13.645,2.16,3.93,4.726,7.684,7.58,8.452a4.059,4.059,0,0,0,2.808-.242c2.442-1.086,4.38-4.347,6.224-8.262,3.579-7.561,6.736-17.168,11.367-20.179a5.369,5.369,0,0,1,2.229-.864c2.491-.334,5.094,1.263,7.17,4.6,2.7,4.338,4.422,11.5,4.579,18.449" transform="translate(134.297 -1259.535)"/>
        <path id="Path_44" data-name="Path 44" class="cls-3" d="M-105.843,1353.672c.318-2.327,1.975-4.986,3.69-8.3,1.725-3.336,3.485-7.055,5.52-9.051,3.337-3.273,7.4-1.386,10.094,3.319,3.456,6.023,4.876,17.055,9.281,20.623,5.076,4.112,10.415-1.976,15.648-4.612,2.181-1.1,4.379-1.618,6.606-.606,3.135,1.422,5.72,5.647,8.281,10.1,3.364,5.831,6.567,11.928,10.639,13.537,2.673,1.057,5.34-.017,7.911-2.256,3.278-2.874,6.447-7.63,9.362-12.186,2.737-4.277,5.692-8.578,8.82-11.191,2.833-2.376,5.764-3.353,8.729-1.857,4.124,2.082,7.371,8.56,10.517,15.189,3.468,7.306,6.851,14.815,11.315,16.947,2.5,1.188,4.907.538,7.234-1.1,3.086-2.174,6.034-6.13,8.823-9.953,4.882-6.729,10.937-13.852,16.732-10.517,4.1,2.357,6.891,9.186,9.678,14.92,2.119,4.342,4.68,8.552,7.563,9.654a3.912,3.912,0,0,0,2.848.027c2.482-.909,4.433-4.11,6.259-8.066,3.53-7.622,6.544-17.749,11.152-21.14a5.57,5.57,0,0,1,2.228-1.024c2.495-.493,5.12,1.007,7.2,4.313,2.706,4.305,4.39,11.547,4.43,18.569" transform="translate(116.528 -1261.542)"/>
        <path id="Path_45" data-name="Path 45" class="cls-3" d="M-87.583,1355.734c.345-2.958,1.767-6.04,3.349-9.315,1.594-3.3,3.34-6.622,5.327-8.382,3.485-3.087,7.661-1.068,10.421,4.044,3.541,6.548,4.94,18.242,9.425,22.138,5.061,4.4,10.372-2.31,15.654-5.514,2.2-1.335,4.422-2.076,6.668-1.19,3.163,1.245,5.738,5.473,8.261,10.067,3.31,6.011,6.451,12.566,10.523,14.494,2.68,1.269,5.362.328,7.953-1.825,3.3-2.754,6.478-7.462,9.381-12.015,2.723-4.271,5.665-8.618,8.771-11.31,2.818-2.45,5.741-3.528,8.705-2.073,4.124,2.024,7.34,8.541,10.478,15.182,3.458,7.319,6.846,14.8,11.356,16.676,2.53,1.046,4.954.185,7.285-1.716,3.089-2.5,6.014-6.835,8.765-10.961,4.822-7.257,10.852-14.758,16.626-11.118,4.08,2.572,6.8,9.921,9.538,16.2,2.078,4.755,4.632,9.432,7.546,10.855a3.858,3.858,0,0,0,2.888.3c2.523-.732,4.487-3.872,6.294-7.871,3.482-7.683,6.352-18.33,10.936-22.1a5.828,5.828,0,0,1,2.227-1.184c2.5-.652,5.147.75,7.225,4.028,2.71,4.273,4.357,11.6,4.282,18.69" transform="translate(98.801 -1263.311)"/>
        <path id="Path_46" data-name="Path 46" class="cls-3" d="M-69.5,1357.61a34.3,34.3,0,0,1,3.009-10.334c1.463-3.268,3.192-6.18,5.134-7.713,3.634-2.868,7.92-.75,10.747,4.769,3.626,7.073,5,19.424,9.568,23.652,5.049,4.678,10.328-2.644,15.661-6.416,2.222-1.572,4.466-2.534,6.731-1.774,3.191,1.069,5.756,5.3,8.242,10.032,3.255,6.191,6.334,13.214,10.408,15.45,2.687,1.488,5.384.674,7.995-1.394,3.316-2.633,6.509-7.294,9.4-11.845,2.709-4.265,5.638-8.657,8.721-11.429,2.8-2.524,5.717-3.7,8.682-2.29,4.124,1.966,7.31,8.522,10.44,15.176,3.449,7.333,6.841,14.791,11.4,16.406,2.557.9,5-.18,7.335-2.331,3.091-2.833,5.994-7.541,8.707-11.97,4.762-7.785,10.768-15.664,16.52-11.719,4.065,2.788,6.715,10.656,9.4,17.471,2.038,5.167,4.585,10.3,7.529,12.057a3.917,3.917,0,0,0,2.927.565c2.563-.554,4.541-3.634,6.329-7.675,3.434-7.744,6.16-18.911,10.721-23.062a6.14,6.14,0,0,1,2.226-1.345c2.5-.812,5.173.493,7.253,3.744,2.714,4.24,4.325,11.643,4.134,18.811" transform="translate(81.248 -1264.911)"/>
        <path id="Path_47" data-name="Path 47" class="cls-3" d="M-51.59,1359.326c.8-8.48,3.825-15.783,7.609-18.4s8.18-.432,11.074,5.494c3.711,7.6,5.073,20.6,9.712,25.167,7.138,7.024,14.694-11.831,22.462-9.675,7.425,2.061,11.324,21.881,18.515,26.4,6.11,3.843,12.3-4.5,17.455-12.637s11.109-16.933,17.33-14.054c8.667,4.011,13.06,28.719,21.84,31.305,6,1.767,11.333-7.61,16.036-15.924s10.684-16.57,16.414-12.319c4.049,3,6.627,11.391,9.259,18.746s6.211,14.712,10.479,14.093c7.583-1.1,9.96-24.6,16.87-31.5,3.03-3.026,6.787-2.253,9.505,1.955s4.293,11.691,3.985,18.932" transform="translate(63.858 -1266.364)"/>
        <path id="Path_48" data-name="Path 48" class="cls-3" d="M-52.634,1324.648c.821-7.363,4.074-13.847,8.04-16.337s8.518-.837,11.551,4.47c3.865,6.763,5.425,18.7,10.165,22.855,7.17,6.287,14.767-11.726,22.483-9.206,7.451,2.434,11.271,22.5,18.458,27.409,6.035,4.121,12.244-3.686,17.44-11.525s11.153-16.607,17.258-14.3c8.485,3.207,12.754,26.052,21.447,28.21,5.944,1.469,11.3-7.37,15.988-15.024s10.53-15.112,16.122-10.6c3.962,3.226,6.51,11.615,9.155,18.941s6.252,14.571,10.515,13.917c7.509-1.138,9.94-24.171,16.678-31.263,2.953-3.1,6.613-2.593,9.32,1.369s4.349,11.368,4,18.5" transform="translate(64.872 -1235.814)"/>
        <path id="Path_49" data-name="Path 49" class="cls-3" d="M-53.686,1289.832c.838-6.246,4.323-11.911,8.472-14.278s8.851-1.246,12.029,3.446c4.012,5.924,5.772,16.8,10.619,20.542,7.2,5.56,14.84-11.617,22.5-8.736,7.478,2.811,11.219,23.119,18.4,28.414,5.96,4.395,12.183-2.873,17.424-10.414s11.2-16.279,17.187-14.544c8.3,2.4,12.447,23.385,21.053,25.115,5.889,1.171,11.276-7.13,15.941-14.124s10.384-13.693,15.829-8.891c3.879,3.42,6.393,11.839,9.051,19.136s6.292,14.429,10.552,13.742c7.436-1.176,9.92-23.74,16.485-31.024,2.876-3.183,6.438-2.933,9.134.783s4.4,11.044,4.014,18.077" transform="translate(65.893 -1205.117)"/>
        <path id="Path_50" data-name="Path 50" class="cls-3" d="M-54.745,1254.823a17.739,17.739,0,0,1,8.9-12.218c4.331-2.244,9.177-1.656,12.506,2.422,4.151,5.086,6.115,14.9,11.072,18.23,7.215,4.845,14.913-11.5,22.526-8.266,7.5,3.192,11.166,23.731,18.342,29.42,5.884,4.664,12.122-2.059,17.408-9.3s11.238-15.951,17.115-14.79c8.115,1.6,12.14,20.719,20.66,22.02,5.835.873,11.248-6.89,15.893-13.225s10.234-12.252,15.537-7.177c3.794,3.631,6.276,12.064,8.947,19.332s6.332,14.288,10.589,13.566c7.362-1.215,9.9-23.31,16.293-30.786,2.8-3.262,6.264-3.274,8.948.2s4.46,10.721,4.029,17.649" transform="translate(66.921 -1174.213)"/>
        <path id="Path_51" data-name="Path 51" class="cls-3" d="M-55.808,1219.53c.871-4.012,4.822-8.038,9.335-10.159s9.5-2.065,12.983,1.4c4.282,4.253,6.454,13.011,11.526,15.917,7.229,4.144,14.987-11.385,22.547-7.8,7.532,3.576,11.113,24.339,18.284,30.425,5.809,4.929,12.061-1.246,17.393-8.19s11.278-15.62,17.043-15.035c7.928.8,11.833,18.052,20.267,18.925,5.781.574,11.22-6.65,15.846-12.325s10.085-10.809,15.245-5.463c3.709,3.842,6.159,12.288,8.843,19.527s6.372,14.147,10.625,13.391c7.288-1.254,9.881-22.879,16.1-30.547,2.722-3.341,6.089-3.614,8.763-.389s4.515,10.4,4.043,17.221" transform="translate(67.953 -1143.005)"/>
        <path id="Path_52" data-name="Path 52" class="cls-3" d="M-56.877,1183.821c.887-2.894,5.071-6.1,9.766-8.1s9.81-2.468,13.461.374c4.405,3.429,6.79,11.127,11.979,13.605,7.238,3.456,15.061-11.263,22.568-7.326,7.56,3.964,11.06,24.943,18.227,31.43,5.734,5.19,12-.432,17.377-7.078s11.317-15.287,16.972-15.28c7.739.01,11.527,15.386,19.873,15.83,5.727.276,11.192-6.409,15.8-11.425s9.935-9.363,14.952-3.749c3.624,4.055,6.042,12.513,8.739,19.722s6.412,14.006,10.662,13.215c7.215-1.293,9.862-22.448,15.908-30.308,2.644-3.42,5.915-3.955,8.577-.975s4.57,10.074,4.058,16.794" transform="translate(68.991 -1111.349)"/>
        <path id="Path_53" data-name="Path 53" class="cls-3" d="M-57.95,1147.493c.9-1.777,5.32-4.166,10.2-6.04s10.118-2.862,13.938-.65c4.522,2.619,7.123,9.252,12.433,11.293,7.242,2.783,15.134-11.136,22.589-6.857,7.587,4.355,11.007,25.542,18.169,32.436,5.659,5.447,11.939.381,17.362-5.966s11.355-14.952,16.9-15.525c7.549-.78,11.22,12.719,19.48,12.734,5.673-.022,11.163-6.169,15.751-10.525s9.786-7.916,14.66-2.035c3.539,4.27,5.925,12.737,8.635,19.917s6.452,13.865,10.7,13.039c7.141-1.331,9.842-22.018,15.716-30.069,2.567-3.5,5.74-4.295,8.391-1.561s4.626,9.75,4.072,16.366" transform="translate(70.033 -1079.029)"/>
        <path id="Path_54" data-name="Path 54" class="cls-3" d="M-59.028,1110.307c.921-.66,5.569-2.229,10.63-3.98s10.423-3.244,14.416-1.674c4.635,1.823,7.453,7.386,12.886,8.98,7.243,2.125,15.208-11.006,22.611-6.387,7.615,4.751,10.955,26.137,18.111,33.441,5.585,5.7,11.878,1.195,17.346-4.855s11.391-14.613,16.829-15.77c7.357-1.565,10.913,10.053,19.086,9.639,5.619-.32,11.135-5.929,15.7-9.625s9.636-6.466,14.368-.321c3.454,4.486,5.808,12.961,8.531,20.113s6.491,13.705,10.735,12.863c7.066-1.4,9.822-21.587,15.523-29.831,2.49-3.578,5.566-4.635,8.206-2.146s4.681,9.427,4.086,15.938" transform="translate(71.079 -1045.786)"/>
        <path id="Path_55" data-name="Path 55" class="cls-3" d="M-60.108,1070.606c.937.457,5.819-.293,11.061-1.921s10.725-3.614,14.893-2.7c4.745,1.043,7.782,5.53,13.34,6.668,7.242,1.483,15.281-10.871,22.632-5.917,7.642,5.15,10.9,26.727,18.053,34.446,5.511,5.949,11.818,2.008,17.33-3.743s11.427-14.27,16.757-16.015c7.164-2.345,10.606,7.387,18.693,6.544,5.565-.619,11.107-5.689,15.656-8.725s9.486-5.014,14.075,1.393c3.369,4.7,5.692,13.185,8.426,20.308s6.531,13.563,10.772,12.688c6.992-1.443,9.8-21.157,15.331-29.592,2.413-3.657,5.391-4.975,8.02-2.732s4.737,9.1,4.1,15.511" transform="translate(72.128 -1009.843)"/>
        <path id="Path_56" data-name="Path 56" class="cls-3" d="M-61.192,1015.547c.954,1.575,6.068,1.644,11.493.139s11.026-3.97,15.37-3.722c4.854.278,8.109,3.684,13.793,4.356,7.239.855,15.354-10.733,22.653-5.447,7.669,5.553,10.852,27.312,18,35.451,5.437,6.195,11.757,2.822,17.315-2.631s11.462-13.923,16.686-16.26c6.97-3.119,10.3,4.72,18.3,3.449,5.511-.917,11.078-5.448,15.608-7.826s9.336-3.559,13.783,3.108c3.284,4.923,5.575,13.41,8.322,20.5s6.571,13.421,10.808,12.512c6.918-1.483,9.783-20.726,15.139-29.353,2.336-3.736,5.217-5.316,7.834-3.318s4.792,8.78,4.115,15.083" transform="translate(73.18 -957.399)"/>
        <path id="Path_57" data-name="Path 57" class="cls-3" d="M-62.279,960.338c.97,2.692,6.317,3.58,11.924,2.2s11.328-4.315,15.848-4.746c4.963-.473,8.435,1.849,14.247,2.043,7.235.242,15.426-10.591,22.674-4.977,7.7,5.96,10.8,27.894,17.938,36.457,5.364,6.437,11.7,3.635,17.3-1.519s11.5-13.571,16.614-16.505c6.775-3.885,9.993,2.054,17.906.354,5.456-1.215,11.05-5.208,15.561-6.926s9.185-2.1,13.491,4.822c3.2,5.144,5.458,13.634,8.218,20.7s6.611,13.279,10.845,12.336c6.844-1.523,9.764-20.3,14.946-29.115,2.259-3.814,5.042-5.656,7.649-3.9s4.848,8.456,4.13,14.656" transform="translate(74.236 -904.796)"/>
        <path id="Path_58" data-name="Path 58" class="cls-3" d="M-63.369,904.975c.987,3.809,6.566,5.516,12.356,4.258s11.631-4.647,16.325-5.77c5.074-1.213,8.761.024,14.7-.269,7.231-.357,15.5-10.445,22.7-4.507,7.722,6.37,10.752,28.471,17.88,37.462,5.292,6.676,11.635,4.449,17.283-.407s11.531-13.214,16.542-16.75c6.581-4.645,9.686-.613,17.513-2.741,5.4-1.513,11.022-4.968,15.513-6.026s9.034-.644,13.2,6.536c3.112,5.367,5.341,13.859,8.114,20.894s6.651,13.137,10.881,12.161c6.771-1.562,9.744-19.865,14.754-28.876,2.182-3.893,4.868-6,7.463-4.49s4.9,8.133,4.144,14.228" transform="translate(75.294 -852.027)"/>
        <path id="Path_59" data-name="Path 59" class="cls-3" d="M-64.461,849.452c1,4.926,6.815,7.453,12.787,6.317s11.937-4.971,16.8-6.794c5.187-1.943,9.088-1.789,15.154-2.582,7.227-.944,15.57-10.3,22.717-4.038,7.747,6.784,10.7,29.044,17.822,38.467,5.221,6.911,11.574,5.262,17.268.7s11.566-12.851,16.471-17c6.387-5.4,9.379-3.279,17.119-5.836,5.348-1.812,10.993-4.728,15.466-5.126s8.883.817,12.906,8.25c3.026,5.59,5.224,14.083,8.01,21.089s6.691,13,10.918,11.985c6.7-1.6,9.725-19.434,14.561-28.637,2.1-3.972,4.693-6.336,7.277-5.076s4.959,7.809,4.159,13.8" transform="translate(76.354 -799.087)"/>
        <path id="Path_60" data-name="Path 60" class="cls-3" d="M-65.555,793.762c1.02,6.043,7.065,9.389,13.219,8.377s12.244-5.286,17.28-7.818c5.3-2.666,9.415-3.592,15.607-4.894,7.225-1.519,15.64-10.144,22.738-3.568,7.772,7.2,10.657,29.613,17.765,39.473,5.151,7.144,11.513,6.076,17.252,1.816s11.6-12.484,16.4-17.241c6.195-6.143,9.072-5.946,16.726-8.932,5.294-2.11,10.965-4.488,15.418-4.226s8.73,2.279,12.614,9.964c2.939,5.816,5.107,14.307,7.906,21.284s6.731,12.855,10.955,11.809c6.623-1.639,9.705-19,14.369-28.4,2.027-4.051,4.519-6.677,7.092-5.662s5.014,7.486,4.173,13.373" transform="translate(77.416 -745.968)"/>
        <path id="Path_61" data-name="Path 61" class="cls-3" d="M-66.651,737.9A12.033,12.033,0,0,0-53,748.338c6.336-.889,12.555-5.595,17.758-8.842a58,58,0,0,1,16.061-7.206c7.224-2.083,15.71-9.99,22.759-3.1,7.8,7.622,10.611,30.179,17.707,40.478,5.081,7.375,11.452,6.889,17.237,2.928s11.639-12.111,16.328-17.486c6-6.883,8.765-8.612,16.332-12.027,5.24-2.408,10.937-4.248,15.371-3.326s8.577,3.744,12.321,11.678c2.851,6.042,4.99,14.532,7.8,21.479s6.772,12.714,10.991,11.634c6.549-1.677,9.686-18.573,14.177-28.16,1.95-4.13,4.344-7.017,6.906-6.248s5.07,7.162,4.188,12.945" transform="translate(78.48 -692.666)"/>
        <path id="Path_62" data-name="Path 62" class="cls-3" d="M-67.749,681.867c1.053,8.278,7.563,13.262,14.082,12.5s12.868-5.9,18.235-9.866c5.544-4.1,10.075-7.167,16.515-9.519,7.225-2.638,15.78-9.832,22.781-2.628,7.819,8.046,10.566,30.74,17.649,41.483,5.013,7.6,11.391,7.7,17.221,4.04s11.678-11.734,16.256-17.731c5.815-7.618,8.459-11.279,15.939-15.122,5.186-2.706,10.909-4.007,15.323-2.427s8.423,5.21,12.029,13.392c2.763,6.27,4.874,14.756,7.7,21.674s6.812,12.574,11.028,11.458c6.476-1.714,9.666-18.142,13.984-27.921,1.873-4.209,4.17-7.357,6.72-6.834s5.125,6.839,4.2,12.518" transform="translate(79.546 -639.179)"/>
        <path id="Path_63" data-name="Path 63" class="cls-3" d="M-68.848,625.658c1.07,9.4,7.812,15.2,14.513,14.555s13.184-6.2,18.712-10.89c5.668-4.808,10.408-8.941,16.968-11.831,7.228-3.185,15.848-9.672,22.8-2.158,7.841,8.473,10.523,31.3,17.591,42.489,4.945,7.829,11.33,8.516,17.205,5.152S50.663,651.621,55.129,645c5.629-8.348,8.152-13.945,15.546-18.217,5.132-3,10.88-3.767,15.276-1.527s8.268,6.677,11.737,15.106c2.674,6.5,4.757,14.98,7.594,21.87s6.852,12.434,11.064,11.282c6.4-1.75,9.646-17.712,13.792-27.682,1.8-4.288,4-7.7,6.535-7.419s5.181,6.516,4.216,12.09" transform="translate(80.613 -585.505)"/>
        <path id="Path_64" data-name="Path 64" class="cls-3" d="M-69.95,569.276c1.087,10.512,8.062,17.135,14.945,16.615s13.5-6.5,19.19-11.914c5.8-5.518,10.743-10.705,17.422-14.144,7.234-3.724,15.916-9.509,22.823-1.689,7.863,8.9,10.482,31.854,17.534,43.494,4.879,8.053,11.269,9.33,17.19,6.263s11.762-10.97,16.113-18.221c5.445-9.074,7.845-16.612,15.152-21.312,5.077-3.3,10.852-3.527,15.228-.627s8.112,8.145,11.444,16.82c2.585,6.729,4.64,15.2,7.49,22.065s6.892,12.295,11.1,11.107c6.328-1.786,9.627-17.281,13.6-27.444,1.719-4.367,3.821-8.038,6.349-8.005s5.236,6.192,4.231,11.662" transform="translate(81.683 -531.644)"/>
        <path id="Path_65" data-name="Path 65" class="cls-3" d="M-71.052,512.693c1.1,11.63,8.311,19.071,15.376,18.674s13.824-6.8,19.667-12.937c5.925-6.227,11.08-12.462,17.875-16.456,7.243-4.257,15.983-9.345,22.844-1.219,7.883,9.336,10.442,32.406,17.476,44.5C27,553.529,33.4,555.4,39.361,552.629S51.168,542.045,55.4,534.163c5.264-9.8,7.538-19.278,14.759-24.407,5.023-3.6,10.824-3.287,15.181.273s7.955,9.614,11.152,18.534c2.494,6.959,4.523,15.429,7.386,22.26s6.933,12.173,11.138,10.931c6.256-1.8,9.607-16.851,13.407-27.2,1.642-4.445,3.646-8.378,6.163-8.591s5.291,5.868,4.245,11.235" transform="translate(82.752 -477.574)"/>
        <path id="Path_66" data-name="Path 66" class="cls-3" d="M-72.157,455.982c1.12,12.747,8.56,21.007,15.808,20.734S-42.2,469.623-36.2,462.755c6.057-6.936,11.421-14.212,18.329-18.768,7.255-4.785,16.049-9.178,22.866-.749,7.9,9.771,10.4,32.955,17.418,45.5,4.748,8.5,11.147,10.957,17.158,8.487s11.855-10.2,15.97-18.712c5.085-10.522,7.232-21.945,14.365-27.5,4.969-3.9,10.8-3.047,15.133,1.173s7.8,11.083,10.86,20.248c2.4,7.19,4.406,15.653,7.282,22.455s6.973,12.032,11.174,10.755c6.183-1.835,9.588-16.42,13.215-26.966,1.564-4.524,3.472-8.719,5.978-9.177s5.347,5.545,4.26,10.807" transform="translate(83.825 -423.362)"/>
        <path id="Path_67" data-name="Path 67" class="cls-3" d="M-73.262,399.119c1.136,13.864,8.809,22.944,16.24,22.793s14.471-7.389,20.622-14.985c6.191-7.645,11.764-15.955,18.782-21.081,7.269-5.309,16.114-9.01,22.887-.279,7.92,10.209,10.367,33.5,17.36,46.51,4.685,8.715,11.087,11.77,17.143,9.6s11.9-9.81,15.9-18.957c4.91-11.245,6.925-24.611,13.972-30.6,4.915-4.2,10.767-2.807,15.086,2.073s7.638,12.553,10.567,21.962c2.311,7.422,4.289,15.878,7.177,22.651s7.013,11.891,11.211,10.58c6.109-1.874,9.568-15.99,13.022-26.727,1.487-4.6,3.3-9.059,5.792-9.763s5.4,5.222,4.274,10.379" transform="translate(84.898 -368.987)"/>
        <path id="Path_68" data-name="Path 68" class="cls-3" d="M-74.368,342.113c1.153,14.981,9.058,24.88,16.671,24.853s14.8-7.686,21.1-16.009c6.326-8.355,12.11-17.693,19.236-23.393,7.287-5.829,16.178-8.84,22.908.191,7.936,10.65,10.332,34.045,17.3,47.515,4.623,8.933,11.026,12.584,17.127,10.711s11.956-9.423,15.826-19.2c4.737-11.969,6.618-27.278,13.578-33.693,4.861-4.5,10.739-2.566,15.038,2.972s7.478,14.023,10.275,23.677c2.218,7.653,4.172,16.1,7.073,22.846s7.053,11.75,11.247,10.4c6.035-1.912,9.548-15.559,12.83-26.489,1.41-4.682,3.122-9.4,5.607-10.349s5.458,4.9,4.289,9.952" transform="translate(85.972 -314.459)"/>
        <path id="Path_69" data-name="Path 69" class="cls-3" d="M-75.476,285.05c1.17,16.1,9.308,26.816,17.1,26.912s15.125-7.983,21.577-17.033,12.459-19.426,19.689-25.706c7.308-6.347,16.233-8.642,22.929.661,7.943,11.125,10.3,34.587,17.245,48.52,4.561,9.15,10.965,13.4,17.111,11.822s12.01-9.037,15.755-19.447c4.566-12.694,6.311-29.944,13.185-36.788,4.807-4.794,10.71-2.326,14.991,3.872s7.308,15.5,9.983,25.391c2.117,7.894,4.055,16.327,6.969,23.041s7.093,11.609,11.284,10.228c5.962-1.951,9.529-15.128,12.637-26.25,1.333-4.761,2.948-9.739,5.421-10.935s5.513,4.575,4.3,9.524" transform="translate(87.047 -259.87)"/>
        <path id="Path_70" data-name="Path 70" class="cls-3" d="M-76.585,227.724c1.186,17.216,9.557,28.753,17.534,28.972S-43.6,248.416-37,238.638s12.811-21.155,20.143-28.018,16.3-8.5,22.951,1.13c7.966,11.537,10.268,35.127,17.187,49.526,4.5,9.366,10.9,14.211,17.1,12.934s12.066-8.652,15.683-19.692c4.4-13.422,6-32.611,12.792-39.883,4.753-5.092,10.682-2.086,14.943,4.772s7.155,16.962,9.69,27.1c2.029,8.116,3.939,16.551,6.865,23.236s7.134,11.468,11.321,10.053c5.888-1.99,9.509-14.7,12.445-26.011,1.256-4.84,2.773-10.08,5.235-11.521s5.569,4.251,4.318,9.1" transform="translate(88.124 -205)"/>
      </g>
    </g>
  </g>
</svg>
