<svg xmlns="http://www.w3.org/2000/svg" xmlns:xlink="http://www.w3.org/1999/xlink" width="415" height="518" viewBox="0 0 415 518">
  <defs>
    <style>
      .cls-1 {
        fill: #414042;
        stroke: rgba(0,0,0,0);
        stroke-miterlimit: 10;
      }

      .cls-2, .cls-3 {
        opacity: 0.93;
      }

      .cls-3 {
        fill: url(#linear-gradient);
      }
    </style>
    <linearGradient id="linear-gradient" x1="1" y1="0.5" x2="0" y2="0.5" gradientUnits="objectBoundingBox">
      <stop offset="0" stop-color="#63d8ac"/>
      <stop offset="1" stop-color="#bcdc77"/>
    </linearGradient>
  </defs>
  <g id="Group_192" data-name="Group 192" transform="translate(882 1841)">
    <path id="Subtraction_234" data-name="Subtraction 234" class="cls-1" d="M444.913,525.092h0l-1.227,0,24.748-24.7a5.589,5.589,0,0,0,1.653-3.983V360.1a5.6,5.6,0,0,0-1.653-3.984l-15.231-15.2a6.451,6.451,0,0,1-1.908-4.6V334.96h.66a3.357,3.357,0,1,1,3.364-3.357,3.365,3.365,0,0,1-3.364,3.357h.209v1.364a5.589,5.589,0,0,0,1.654,3.983l15.23,15.2a6.455,6.455,0,0,1,1.908,4.6V496.41a6.451,6.451,0,0,1-1.908,4.6Zm-21.64,0h0l-2.456,0L450.47,495.5A5.155,5.155,0,0,0,452,491.821V374.505a5.155,5.155,0,0,0-1.527-3.677L433.21,353.6a6.875,6.875,0,0,1-2.036-4.9V314.866a5.027,5.027,0,1,1,1.737.111V348.7a5.163,5.163,0,0,0,1.526,3.678L451.7,369.6a6.882,6.882,0,0,1,2.036,4.9V491.821a6.879,6.879,0,0,1-2.036,4.9Zm-34.015,0h-2.641a7.274,7.274,0,0,1,2.1-4.237l38.423-38.345a5.023,5.023,0,1,1,1.841,1.839l-38.423,38.345a4.743,4.743,0,0,0-1.3,2.4Zm-16.338,0h-1.737V512.72a6.879,6.879,0,0,1,2.036-4.9L401.8,479.3a5.163,5.163,0,0,0,1.526-3.678V360.79a6.878,6.878,0,0,1,2.035-4.9l9.916-9.9a5.231,5.231,0,0,0,1.527-3.678V314.932a5.025,5.025,0,1,1,1.737,0v27.381a6.972,6.972,0,0,1-2.036,4.9l-9.917,9.9a5.16,5.16,0,0,0-1.525,3.677V475.619a6.878,6.878,0,0,1-2.036,4.9l-28.577,28.521a5.156,5.156,0,0,0-1.527,3.677v12.371Zm-15.623,0h-3.474V502.061a7.748,7.748,0,0,1,2.289-5.516l23.926-23.876a4.3,4.3,0,0,0,1.272-3.065V362.848a4.359,4.359,0,0,0-1.272-3.064l-46.945-46.85a7.743,7.743,0,0,1-2.29-5.516V287.6a9.316,9.316,0,0,1,1.719-18.47,9.443,9.443,0,0,1,1.515.123,9.315,9.315,0,0,1,.24,18.352v19.814a4.3,4.3,0,0,0,1.273,3.065l46.944,46.85a7.737,7.737,0,0,1,2.29,5.516V469.6a7.74,7.74,0,0,1-2.29,5.516L358.567,499a4.3,4.3,0,0,0-1.271,3.064v23.03Zm-17.017,0h-1.737V370.734a5.162,5.162,0,0,0-1.526-3.677l-29.938-29.878a6.881,6.881,0,0,1-2.035-4.9V196.586a5.026,5.026,0,1,1,1.737,0v135.69a5.161,5.161,0,0,0,1.526,3.677l29.939,29.878a6.882,6.882,0,0,1,2.035,4.9Zm-33.8,0h-.868V503.887a4.734,4.734,0,0,1,1.4-3.371l12.92-12.892a4.9,4.9,0,1,1,4.146,2.286,4.917,4.917,0,0,1-3.614-1.591l-12.837,12.811a3.869,3.869,0,0,0-1.145,2.758v21.2Zm17.6-44.1a4.024,4.024,0,1,0,4.032,4.024A4.033,4.033,0,0,0,324.07,480.994Zm-33.773,44.1h-3.474V501.918a7.742,7.742,0,0,1,2.29-5.515l28.836-28.777a4.3,4.3,0,0,0,1.272-3.064V437.6a4.3,4.3,0,0,0-1.272-3.065l-42.357-42.272a4.316,4.316,0,0,0-3.071-1.27h-19.58a7.772,7.772,0,0,1-5.527-2.285l-28.453-28.4a7.737,7.737,0,0,1-2.29-5.516V48.058a9.316,9.316,0,0,1,1.719-18.471,9.451,9.451,0,0,1,1.515.123,9.336,9.336,0,0,1,7.716,10.7,9.322,9.322,0,0,1-7.475,7.657V354.8a4.3,4.3,0,0,0,1.272,3.065l28.453,28.4a4.322,4.322,0,0,0,3.071,1.269h19.58a7.775,7.775,0,0,1,5.527,2.284L320.4,432.083a7.737,7.737,0,0,1,2.29,5.516v26.962a7.74,7.74,0,0,1-2.29,5.516l-28.836,28.777a4.3,4.3,0,0,0-1.272,3.064v23.173Zm-24.232,0h-1.737V483.707a5.892,5.892,0,1,1,1.737,0Zm-.868-51.351a4.148,4.148,0,1,0,4.156,4.149A4.157,4.157,0,0,0,265.2,473.741ZM240.65,525.092h-1.737V471.2a6.882,6.882,0,0,1,2.035-4.9l14.472-14.443a5.161,5.161,0,0,0,1.525-3.677v-28.41a5.165,5.165,0,0,0-1.525-3.678l-54.765-54.654a6.878,6.878,0,0,1-2.036-4.9V119.778a5.026,5.026,0,1,1,1.737,0V356.533a5.16,5.16,0,0,0,1.527,3.677l54.764,54.654a6.882,6.882,0,0,1,2.035,4.9v28.41a6.879,6.879,0,0,1-2.035,4.9l-14.472,14.442a5.162,5.162,0,0,0-1.525,3.678Zm-21.661,0h-3.474V444.456a4.3,4.3,0,0,0-1.271-3.065L166.7,393.947a7.739,7.739,0,0,1-2.29-5.515V360.1a4.3,4.3,0,0,0-1.272-3.064L150.773,344.7a7.743,7.743,0,0,1-2.29-5.516V77.063a11,11,0,1,1,3.474,0V339.18a4.3,4.3,0,0,0,1.272,3.064l12.37,12.344a7.749,7.749,0,0,1,2.289,5.516v28.328a4.3,4.3,0,0,0,1.272,3.064L216.7,438.941a7.741,7.741,0,0,1,2.289,5.515ZM150.221,58.705a7.513,7.513,0,1,0,7.529,7.514A7.53,7.53,0,0,0,150.221,58.705Zm41,466.387h-1.737V474.63a5.159,5.159,0,0,0-1.526-3.677l-28.593-28.535a5.18,5.18,0,0,0-3.686-1.524H134.06a6.91,6.91,0,0,1-4.913-2.03l-8.192-8.175a6.883,6.883,0,0,1-2.035-4.9v-84.27a5.025,5.025,0,1,1,1.737,0v84.27a5.159,5.159,0,0,0,1.526,3.677l8.192,8.176a5.181,5.181,0,0,0,3.685,1.523h21.62a6.9,6.9,0,0,1,4.913,2.031l28.594,28.535a6.885,6.885,0,0,1,2.035,4.9Zm-17.238,0h-1.737V512.72a5.159,5.159,0,0,0-1.526-3.677L147.7,486.071a5.181,5.181,0,0,0-3.685-1.523H108.093v-1.733h35.925a6.905,6.905,0,0,1,4.912,2.03l23.019,22.972a6.881,6.881,0,0,1,2.035,4.9v12.371Zm306.527-18.468a4.025,4.025,0,1,1,4.014-4.461h17.339a3.885,3.885,0,0,0,2.763-1.143l9.138-9.119a3.872,3.872,0,0,0,1.145-2.759V396.711a4.037,4.037,0,1,1,.868,0v92.431a4.733,4.733,0,0,1-1.4,3.372l-9.139,9.119a4.746,4.746,0,0,1-3.377,1.4H484.526A4.027,4.027,0,0,1,480.512,506.624Zm0-7.19a3.162,3.162,0,1,0,3.169,3.162A3.168,3.168,0,0,0,480.512,499.434Zm34.834-109.892a3.162,3.162,0,1,0,3.168,3.162A3.169,3.169,0,0,0,515.345,389.543ZM206.538,501.9h-4.05a3,3,0,0,1-3-3v-4.03a3,3,0,0,1,3-3h4.05a3,3,0,0,1,3,3v4.03A3,3,0,0,1,206.538,501.9Zm-28.587-6.415a4.887,4.887,0,0,1-3.745-8.042l-22-21.952a3.889,3.889,0,0,0-2.764-1.143H124.9a4.875,4.875,0,1,1,0-.867h24.543a4.751,4.751,0,0,1,3.378,1.4l22,21.955a4.894,4.894,0,1,1,3.128,8.653Zm-3.128-7.427a4.04,4.04,0,1,0,.617-.61l.008.008-.614.613-.012-.011Zm-54.8-28.167a4.024,4.024,0,1,0,4.032,4.024A4.033,4.033,0,0,0,120.023,459.887Zm229.295,23.324a4.891,4.891,0,1,1,3.227-8.569l15.707-15.676a3.872,3.872,0,0,0,1.143-2.758V366.536a4.038,4.038,0,1,1,.868,0v89.672a4.733,4.733,0,0,1-1.4,3.37l-15.72,15.689a4.831,4.831,0,0,1,1.075,3.053A4.9,4.9,0,0,1,349.318,483.211Zm0-8.915a4.024,4.024,0,1,0,4.034,4.025A4.033,4.033,0,0,0,349.318,474.3ZM369.83,359.367A3.162,3.162,0,1,0,373,362.529,3.168,3.168,0,0,0,369.83,359.367ZM297.887,469.178h-4.05a3,3,0,0,1-3-3v-4.029a3,3,0,0,1,3-3h4.05a3,3,0,0,1,3,3v4.029A3,3,0,0,1,297.887,469.178ZM417.669,464.6a4.029,4.029,0,0,1-.434-8.034V382.646a4.73,4.73,0,0,1,1.4-3.371l9.759-9.738a4.05,4.05,0,1,1,.544.682l-9.689,9.669a3.866,3.866,0,0,0-1.145,2.758v73.917a4.028,4.028,0,0,1-.435,8.034Zm0-7.191a3.162,3.162,0,1,0,3.169,3.162A3.168,3.168,0,0,0,417.669,457.406Zm14.137-93.181a3.162,3.162,0,1,0,3.168,3.162A3.169,3.169,0,0,0,431.807,364.226ZM240.116,453.539a4.89,4.89,0,0,1-.435-9.761V422.964a3.87,3.87,0,0,0-1.145-2.758L185.954,367.73a4.8,4.8,0,0,1-1.4-3.372V287.774a4.9,4.9,0,1,1,.868,0v76.584a3.93,3.93,0,0,0,1.144,2.759l52.582,52.475a4.732,4.732,0,0,1,1.4,3.371v20.813a4.89,4.89,0,0,1-.434,9.761Zm0-8.915a4.024,4.024,0,1,0,4.032,4.023A4.032,4.032,0,0,0,240.116,444.624ZM184.99,278.878a4.024,4.024,0,1,0,4.031,4.025A4.034,4.034,0,0,0,184.99,278.878ZM486.14,450.9h-4.05a3,3,0,0,1-3-3v-4.029a3,3,0,0,1,3-3h4.05a3,3,0,0,1,3,3V447.9A3,3,0,0,1,486.14,450.9ZM297.887,440.627h-4.05a3,3,0,0,1-3-3V433.6a3,3,0,0,1,3-3h4.05a3,3,0,0,1,3,3v4.029A3,3,0,0,1,297.887,440.627ZM486.14,418.893h-4.05a3,3,0,0,1-3-3v-4.029a3,3,0,0,1,3-3h4.05a3,3,0,0,1,3,3v4.029A3,3,0,0,1,486.14,418.893Zm-161.865-5.521a4.891,4.891,0,0,1-.435-9.762V379.074a3.869,3.869,0,0,0-1.145-2.758l-34.578-34.509a4.733,4.733,0,0,1-1.4-3.37V234.365a4.9,4.9,0,1,1,.868,0V338.437a3.873,3.873,0,0,0,1.145,2.758L323.309,375.7a4.731,4.731,0,0,1,1.4,3.37V403.61a4.89,4.89,0,0,1-.434,9.762Zm0-8.915a4.024,4.024,0,1,0,4.032,4.025A4.033,4.033,0,0,0,324.275,404.457Zm-37.122-178.99a4.024,4.024,0,1,0,4.033,4.026A4.033,4.033,0,0,0,287.152,225.467ZM486.14,386.889h-4.05a3,3,0,0,1-3-3V379.86a3,3,0,0,1,3-3h4.05a3,3,0,0,1,3,3v4.029A3,3,0,0,1,486.14,386.889Zm-225.314-9a4.887,4.887,0,0,1-3.736-8.053l-21.027-20.985a4.734,4.734,0,0,1-1.4-3.37V201.842a4.9,4.9,0,1,1,.868,0V345.484a3.872,3.872,0,0,0,1.145,2.758l21.031,20.99a4.894,4.894,0,1,1,3.118,8.662Zm0-8.915A4.024,4.024,0,1,0,264.858,373,4.033,4.033,0,0,0,260.825,368.978ZM235.1,192.946a4.024,4.024,0,1,0,4.032,4.024A4.033,4.033,0,0,0,235.1,192.946ZM134.292,287.793a4.891,4.891,0,0,1-.435-9.762V171.281a3.869,3.869,0,0,0-1.145-2.758l-7.752-7.736a4.9,4.9,0,1,1,.663-.563l7.7,7.686a4.728,4.728,0,0,1,1.4,3.37v106.75a4.89,4.89,0,0,1-.434,9.762Zm0-8.915a4.024,4.024,0,1,0,4.032,4.025A4.033,4.033,0,0,0,134.292,278.878ZM122.133,152.771a4.024,4.024,0,1,0,4.032,4.024A4.033,4.033,0,0,0,122.133,152.771ZM174.8,201.985h-4.05a3,3,0,0,1-3-3v-4.029a3,3,0,0,1,3-3h4.05a3,3,0,0,1,3,3v4.029A3,3,0,0,1,174.8,201.985Zm0-40.175h-4.05a3,3,0,0,1-3-3v-4.03a3,3,0,0,1,3-3h4.05a3,3,0,0,1,3,3v4.03A3,3,0,0,1,174.8,161.81Z" transform="translate(-989 -1850.093)"/>
    <g id="Group_74" data-name="Group 74" class="cls-2" transform="translate(-2067.271 -1726)">
      <rect id="Rectangle_174" data-name="Rectangle 174" class="cls-3" width="415" height="518" transform="translate(1185.271 -115)"/>
    </g>
  </g>
</svg>
